<?xml version="1.0" encoding="utf-8"?>
<!-- Generator: Adobe Illustrator 24.3.0, SVG Export Plug-In . SVG Version: 6.00 Build 0)  -->
<svg version="1.1" id="Layer_1" xmlns="http://www.w3.org/2000/svg" xmlns:xlink="http://www.w3.org/1999/xlink" x="0px" y="0px"
	 viewBox="0 0 162 128.2" style="enable-background:new 0 0 162 128.2;" xml:space="preserve">
<style type="text/css">
	.st0{fill:#FFFFFF;}
	.st1{fill:#3B6579;}
</style>
<g>
	<path class="st0" d="M153.9,0.5C47.3-0.6,46.5,0.2,45.5,1.2c-0.5,0.4-0.7,1.1-0.7,1.7V14c0,1.3,1.1,2.4,2.4,2.4h13.3v5.7H22.9
		c-0.6,0-1.2,0.2-1.7,0.7L0.7,43.3C0.2,43.8,0,44.4,0,45v55.1c0,1.3,1.1,2.4,2.4,2.4h20.7c0,0.3,0,0.5,0,0.8c0,9.8,8,17.8,17.8,17.8
		s17.8-8,17.8-17.8c0-0.3,0-0.5,0-0.8h27.4c0,0.3,0,0.5,0,0.8c0,9.8,8,17.8,17.8,17.8s17.8-8,17.8-17.8c0-0.3,0-0.5,0-0.8
		c0,0,0.1,0,0.1,0h7c1.3,0,2.4-1.1,2.4-2.4V80.7h22.8c1.3,0,2.4-1.1,2.4-2.4V2.9C156.2,1.6,155.2,0.5,153.9,0.5z"/>
</g>
<g>
	<g>
		<path class="st1" d="M31.5,109.6H8.1c-1.3,0-2.4-1.1-2.4-2.4V52c0-0.6,0.2-1.2,0.7-1.7L27,29.8c0.5-0.5,1-0.7,1.7-0.7l0,0h40
			c1.3,0,2.4,1.1,2.4,2.4v53.9c0,1.3-1.1,2.4-2.4,2.4c-1.3,0-2.4-1.1-2.4-2.4V33.9H29.6L10.5,53v51.8h21c1.3,0,2.4,1.1,2.4,2.4
			C33.9,108.5,32.8,109.6,31.5,109.6z"/>
	</g>
	<g>
		<path class="st1" d="M94.2,109.6H62.1c-1.3,0-2.4-1.1-2.4-2.4c0-1.3,1.1-2.4,2.4-2.4h32.1c1.3,0,2.4,1.1,2.4,2.4
			C96.6,108.5,95.5,109.6,94.2,109.6z"/>
	</g>
	<g>
		<path class="st1" d="M46.6,128.2c-9.8,0-17.8-8-17.8-17.8s8-17.8,17.8-17.8s17.8,8,17.8,17.8S56.5,128.2,46.6,128.2z M46.6,97.3
			c-7.2,0-13,5.9-13,13.1s5.9,13.1,13,13.1s13-5.9,13-13.1S53.8,97.3,46.6,97.3z"/>
	</g>
	<g>
		<path class="st1" d="M109.6,128.2c-9.8,0-17.8-8-17.8-17.8s8-17.8,17.8-17.8s17.8,8,17.8,17.8S119.4,128.2,109.6,128.2z
			 M109.6,97.3c-7.2,0-13.1,5.9-13.1,13.1s5.9,13.1,13.1,13.1c7.2,0,13.1-5.9,13.1-13.1S116.8,97.3,109.6,97.3z"/>
	</g>
	<g>
		<path class="st1" d="M134.4,109.6h-6.9c-1.3,0-2.4-1.1-2.4-2.4c0-1.3,1.1-2.4,2.4-2.4h4.6v-17H68.7c-1.3,0-2.4-1.1-2.4-2.4
			c0-1.3,1.1-2.4,2.4-2.4h65.8c1.3,0,2.4,1.1,2.4,2.4v21.8C136.8,108.5,135.7,109.6,134.4,109.6z"/>
	</g>
	<g>
		<path class="st1" d="M159.6,87.8h-25.1c-1.3,0-2.4-1.1-2.4-2.4c0-1.3,1.1-2.4,2.4-2.4h22.8V12.3c-37.5-0.4-91.1-0.7-101.9-0.2v6.6
			h13.3c1.3,0,2.4,1.1,2.4,2.4v10.5c0,1.3-1.1,2.4-2.4,2.4c-1.3,0-2.4-1.1-2.4-2.4v-8.1H52.9c-1.3,0-2.4-1.1-2.4-2.4V9.9
			c0-0.6,0.3-1.3,0.7-1.7c0.9-0.9,1.7-1.7,108.3-0.7c1.3,0,2.4,1.1,2.4,2.4v75.5C162,86.7,160.9,87.8,159.6,87.8z"/>
	</g>
	<g>
		<path class="st1" d="M82.1,52.2c-0.4,0-0.8-0.1-1.2-0.3c-1.1-0.7-1.5-2.1-0.9-3.3l15.6-27.1c0.7-1.1,2.1-1.5,3.3-0.9
			c1.1,0.7,1.5,2.1,0.9,3.3L84.1,51C83.7,51.7,82.9,52.2,82.1,52.2z"/>
	</g>
	<g>
		<path class="st1" d="M95.7,52.2c-0.4,0-0.8-0.1-1.2-0.3c-1.1-0.7-1.5-2.1-0.9-3.3l15.6-27.1c0.7-1.1,2.1-1.5,3.3-0.9
			c1.1,0.7,1.5,2.1,0.9,3.3L97.8,51C97.3,51.7,96.5,52.2,95.7,52.2z"/>
	</g>
	<g>
		<path class="st1" d="M109.8,52.2c-0.4,0-0.8-0.1-1.2-0.3c-1.1-0.7-1.5-2.1-0.9-3.3l15.6-27.1c0.7-1.1,2.1-1.5,3.3-0.9
			c1.1,0.7,1.5,2.1,0.9,3.3L111.9,51C111.4,51.7,110.6,52.2,109.8,52.2z"/>
	</g>
</g>
</svg>
