<?xml version="1.0" encoding="utf-8"?>
<!-- Generator: Adobe Illustrator 24.3.0, SVG Export Plug-In . SVG Version: 6.00 Build 0)  -->
<svg version="1.1" id="Layer_1" xmlns="http://www.w3.org/2000/svg" xmlns:xlink="http://www.w3.org/1999/xlink" x="0px" y="0px"
	 viewBox="0 0 120 131.9" style="enable-background:new 0 0 120 131.9;" xml:space="preserve">
<style type="text/css">
	.st0{fill:#FFFFFF;}
	.st1{fill:#3B6579;}
</style>
<path class="st0" d="M92.5,81.8l0-37.6c11-1.3,19.6-10.7,19.6-22C112.1,9.9,102.1,0,89.9,0C77.7,0,67.8,9.9,67.8,22.2
	c0,3.3,0.7,6.4,2,9.2l-30.1,18c-4.1-5.2-10.4-8.6-17.5-8.6C9.9,40.8,0,50.7,0,63s9.9,22.2,22.2,22.2c7.1,0,13.5-3.4,17.6-8.7
	l30.1,18c-1.3,2.8-2.1,6-2.1,9.3c0,12.2,9.9,22.2,22.2,22.2s22.2-9.9,22.2-22.2C112.1,92.4,103.5,83.1,92.5,81.8z M42.4,72.1
	c1.3-2.8,2-5.9,2-9.1s-0.7-6.3-2-9.1l30.1-18c3.6,4.5,8.9,7.7,14.9,8.4l0,37.6c-6,0.7-11.3,3.8-14.8,8.3L42.4,72.1z"/>
<g>
	<g>
		<g>
			<path class="st1" d="M29.6,90.7c-12.4,0-22.4-10.1-22.4-22.4s10.1-22.4,22.4-22.4S52,56,52,68.3C52,80.7,41.9,90.7,29.6,90.7z
				 M29.6,51.5c-9.2,0-16.8,7.5-16.8,16.8c0,9.2,7.5,16.8,16.8,16.8s16.8-7.5,16.8-16.8C46.3,59.1,38.8,51.5,29.6,51.5z"/>
			<path class="st1" d="M29.6,46.2c12.2,0,22.2,9.9,22.2,22.2s-9.9,22.2-22.2,22.2S7.4,80.5,7.4,68.3S17.3,46.2,29.6,46.2
				 M29.6,85.3c9.4,0,17-7.6,17-17s-7.6-17-17-17s-17,7.6-17,17S20.2,85.3,29.6,85.3 M29.6,45.7c-12.5,0-22.7,10.2-22.7,22.7
				C6.9,80.8,17.1,91,29.6,91s22.7-10.2,22.7-22.7C52.2,55.8,42.1,45.7,29.6,45.7L29.6,45.7z M29.6,84.8c-9.1,0-16.5-7.4-16.5-16.5
				s7.4-16.5,16.5-16.5c9.1,0,16.5,7.4,16.5,16.5C46.1,77.4,38.7,84.8,29.6,84.8L29.6,84.8z"/>
		</g>
	</g>
	<g>
		<g>
			<path class="st1" d="M97.3,50c-12.4,0-22.4-10-22.4-22.4S85,5.1,97.3,5.1s22.4,10.1,22.4,22.4S109.7,50,97.3,50z M97.3,10.8
				c-9.2,0-16.8,7.5-16.8,16.8c0,9.2,7.5,16.8,16.8,16.8s16.8-7.5,16.8-16.8S106.6,10.8,97.3,10.8z"/>
			<path class="st1" d="M97.3,5.4c12.2,0,22.2,9.9,22.2,22.2s-9.9,22.2-22.2,22.2s-22.2-9.9-22.2-22.2C75.2,15.3,85.1,5.4,97.3,5.4
				 M97.3,44.6c9.4,0,17-7.6,17-17s-7.6-17-17-17c-9.4,0-17,7.6-17,17C80.3,36.9,87.9,44.6,97.3,44.6 M97.3,4.9
				C84.8,4.9,74.7,15,74.7,27.5c0,12.5,10.2,22.7,22.7,22.7c12.5,0,22.7-10.2,22.7-22.7C120,15,109.8,4.9,97.3,4.9L97.3,4.9z
				 M97.3,44.1c-9.1,0-16.5-7.4-16.5-16.5c0-9.1,7.4-16.5,16.5-16.5c9.1,0,16.5,7.4,16.5,16.5S106.4,44.1,97.3,44.1L97.3,44.1z"/>
		</g>
	</g>
	<g>
		<g>
			<path class="st1" d="M97.3,131.6c-12.4,0-22.4-10.1-22.4-22.4S85,86.8,97.3,86.8s22.4,10.1,22.4,22.4
				C119.7,121.5,109.7,131.6,97.3,131.6z M97.3,92.4c-9.2,0-16.8,7.5-16.8,16.8S88.1,126,97.3,126s16.8-7.5,16.8-16.8
				S106.6,92.4,97.3,92.4z"/>
			<path class="st1" d="M97.3,87c12.2,0,22.2,9.9,22.2,22.2s-9.9,22.2-22.2,22.2c-12.2,0-22.2-9.9-22.2-22.2S85.1,87,97.3,87
				 M97.3,126.2c9.4,0,17-7.6,17-17s-7.6-17-17-17s-17,7.6-17,17C80.3,118.6,87.9,126.2,97.3,126.2 M97.3,86.5
				c-12.5,0-22.7,10.2-22.7,22.7c0,12.5,10.2,22.7,22.7,22.7s22.7-10.2,22.7-22.7C120,96.7,109.8,86.5,97.3,86.5L97.3,86.5z
				 M97.3,125.7c-9.1,0-16.5-7.4-16.5-16.5c0-9.1,7.4-16.5,16.5-16.5s16.5,7.4,16.5,16.5S106.4,125.7,97.3,125.7L97.3,125.7z"/>
		</g>
	</g>
	<g>
		<g>
			<path class="st1" d="M47,60.7c-1,0-1.9-0.5-2.4-1.4c-0.4-0.7-0.5-1.4-0.3-2.1c0.2-0.7,0.6-1.3,1.3-1.7l33.6-20.1
				c0.4-0.3,0.9-0.4,1.4-0.4c1,0,1.9,0.5,2.4,1.4c0.8,1.3,0.4,3.1-1,3.9L48.5,60.3C48,60.5,47.5,60.7,47,60.7z"/>
			<path class="st1" d="M80.6,35.2c0.9,0,1.7,0.5,2.2,1.2c0.7,1.2,0.3,2.8-0.9,3.5L48.4,60c-0.4,0.2-0.9,0.4-1.3,0.4
				c-0.9,0-1.7-0.5-2.2-1.2c-0.7-1.2-0.3-2.8,0.9-3.5l33.6-20.1C79.7,35.3,80.2,35.2,80.6,35.2 M80.6,34.7L80.6,34.7
				c-0.6,0-1.1,0.2-1.6,0.4L45.5,55.2c-0.7,0.4-1.2,1.1-1.4,1.9s-0.1,1.6,0.3,2.3c0.5,0.9,1.6,1.5,2.6,1.5c0.5,0,1.1-0.2,1.6-0.4
				l33.6-20.1c0.7-0.4,1.2-1.1,1.4-1.9c0.2-0.8,0.1-1.6-0.3-2.3C82.7,35.2,81.7,34.7,80.6,34.7L80.6,34.7z"/>
		</g>
	</g>
	<g>
		<g>
			<path class="st1" d="M80.6,101.7c-0.5,0-1-0.1-1.4-0.4L44.9,80.8c-0.7-0.4-1.1-1-1.3-1.7s-0.1-1.5,0.3-2.1
				c0.5-0.8,1.4-1.4,2.4-1.4c0.5,0,1,0.1,1.5,0.4l34.2,20.5c1.3,0.8,1.8,2.5,1,3.9C82.5,101.2,81.6,101.7,80.6,101.7z"/>
			<path class="st1" d="M46.4,75.8c0.5,0,0.9,0.1,1.3,0.4l34.2,20.5c1.2,0.7,1.6,2.3,0.9,3.5c-0.5,0.8-1.3,1.2-2.2,1.2
				c-0.4,0-0.9-0.1-1.3-0.4L45,80.6c-1.2-0.7-1.6-2.3-0.9-3.5C44.6,76.3,45.5,75.8,46.4,75.8 M46.4,75.3L46.4,75.3
				c-1.1,0-2.1,0.6-2.6,1.5c-0.4,0.7-0.5,1.5-0.3,2.3c0.2,0.8,0.7,1.5,1.4,1.9L79,101.5c0.5,0.3,1,0.4,1.6,0.4
				c1.1,0,2.1-0.6,2.6-1.5c0.4-0.7,0.5-1.5,0.3-2.3c-0.2-0.8-0.7-1.5-1.4-1.9L47.9,75.8C47.5,75.5,46.9,75.3,46.4,75.3L46.4,75.3z"
				/>
		</g>
	</g>
</g>
<g>
	<g>
		<path class="st1" d="M97.3,90.7c-0.8,0-1.5-0.3-2-0.8c-0.5-0.5-0.8-1.2-0.8-2l0-39.1c0-1.5,1.3-2.8,2.8-2.8c0.8,0,1.5,0.3,2,0.8
			c0.5,0.5,0.8,1.2,0.8,2l0,39.1c0,0.5-0.1,1-0.4,1.4C99.2,90.2,98.3,90.7,97.3,90.7L97.3,90.7z"/>
		<path class="st1" d="M97.3,46.2C97.3,46.2,97.3,46.2,97.3,46.2c1.4,0,2.6,1.2,2.6,2.6l0,39.1c0,0.5-0.1,0.9-0.4,1.3
			c-0.4,0.8-1.3,1.2-2.2,1.2c0,0,0,0,0,0c-1.4,0-2.6-1.2-2.6-2.6l0-39.1C94.8,47.3,95.9,46.2,97.3,46.2 M97.3,45.7
			c-1.7,0-3.1,1.4-3.1,3.1l0,39.1c0,0.8,0.3,1.6,0.9,2.2s1.3,0.9,2.2,0.9c1.1,0,2.1-0.6,2.6-1.5c0.3-0.5,0.4-1,0.4-1.6l0-39.1
			c0-0.8-0.3-1.6-0.9-2.2C98.9,46,98.2,45.7,97.3,45.7L97.3,45.7L97.3,45.7z"/>
	</g>
</g>
</svg>
