<?xml version="1.0" encoding="utf-8"?>
<!-- Generator: Adobe Illustrator 24.3.0, SVG Export Plug-In . SVG Version: 6.00 Build 0)  -->
<svg version="1.1" id="Layer_1" xmlns="http://www.w3.org/2000/svg" xmlns:xlink="http://www.w3.org/1999/xlink" x="0px" y="0px"
	 viewBox="0 0 170.7 111.8" style="enable-background:new 0 0 170.7 111.8;" xml:space="preserve">
<style type="text/css">
	.st0{fill:#FFFFFF;}
	.st1{fill:none;stroke:#3C667B;stroke-width:6;stroke-linecap:round;stroke-linejoin:round;stroke-miterlimit:22.9256;}
	.st2{fill:#3C667B;}
</style>
<path class="st0" d="M153.3,42.5l-12.7-6.8c-10.6-7.4-15.6-36-24.5-35.8c1.1,0-11.9,0.1-102.9,0.1c-3.7,0-7.3,3.4-8,7L0,38.9v39.3
	c0,0-0.4,6.7,10.7,6.7c11.1,0,12.8,0.3,12.8,0.3c0,9.8,7.9,17.7,17.7,17.7c9.8,0,17.7-7.9,17.7-17.7h46c0,9.8,7.9,17.7,17.7,17.7
	c9.8,0,17.7-7.9,17.7-17.7l12.1-0.3c3.6,0,8-3.1,8-6.7V55.5C160.5,53.3,159.8,46.9,153.3,42.5z"/>
<line class="st1" x1="108.4" y1="6.5" x2="108.4" y2="41.8"/>
<line class="st1" x1="108.4" y1="41.8" x2="148.1" y2="41.8"/>
<path class="st1" d="M29.4,90.4c0,0-1.6-0.4-12.8-0.3c-11.1,0-10.7-6.7-10.7-6.7V44.1l5.2-31.8c0.7-3.6,4.4-7,8-7
	c91,0,104-0.1,102.9-0.1C130.9,5,136,33.6,146.6,41l12.7,6.8c6.5,4.4,7.2,10.7,7.2,12.9v22.7c0,3.6-4.4,6.7-8,6.7l-12.1,0.3"/>
<path class="st1" d="M16.6,90.1"/>
<line class="st1" x1="110.2" y1="90.1" x2="65.2" y2="90.1"/>
<path class="st1" d="M128.5,72.7c9.8,0,17.7,7.9,17.7,17.7c0,9.8-7.9,17.7-17.7,17.7c-9.8,0-17.7-7.9-17.7-17.7
	C110.8,80.6,118.7,72.7,128.5,72.7L128.5,72.7z"/>
<path class="st1" d="M47.1,72.7c9.8,0,17.7,7.9,17.7,17.7c0,9.8-7.9,17.7-17.7,17.7c-9.8,0-17.7-7.9-17.7-17.7
	C29.4,80.6,37.3,72.7,47.1,72.7L47.1,72.7z"/>
<g>
	<path class="st2" d="M52.7,45.3c-0.4,0-0.7-0.1-1.1-0.3c-1-0.6-1.4-1.9-0.8-2.9l14-24.3c0.6-1,1.9-1.4,2.9-0.8
		c1,0.6,1.4,1.9,0.8,2.9l-14,24.3C54.1,44.9,53.4,45.3,52.7,45.3z"/>
</g>
<g>
	<path class="st2" d="M64.9,45.3c-0.4,0-0.7-0.1-1.1-0.3c-1-0.6-1.4-1.9-0.8-2.9l14-24.3c0.6-1,1.9-1.4,2.9-0.8
		c1,0.6,1.4,1.9,0.8,2.9l-14,24.3C66.4,44.9,65.7,45.3,64.9,45.3z"/>
</g>
<g>
	<path class="st2" d="M77.6,45.3c-0.4,0-0.7-0.1-1.1-0.3c-1-0.6-1.4-1.9-0.8-2.9l14-24.3c0.6-1,1.9-1.4,2.9-0.8
		c1,0.6,1.4,1.9,0.8,2.9l-14,24.3C79.1,44.9,78.3,45.3,77.6,45.3z"/>
</g>
</svg>
