<?xml version="1.0" encoding="utf-8"?>
<!-- Generator: Adobe Illustrator 24.3.0, SVG Export Plug-In . SVG Version: 6.00 Build 0)  -->
<svg version="1.1" id="Layer_1" xmlns="http://www.w3.org/2000/svg" xmlns:xlink="http://www.w3.org/1999/xlink" x="0px" y="0px"
	 viewBox="0 0 181.9 126.1" style="enable-background:new 0 0 181.9 126.1;" xml:space="preserve">
<style type="text/css">
	.st0{fill:#FFFFFF;}
	.st1{fill:#3B6579;}
</style>
<g>
	<path class="st0" d="M25.3,106.8c-0.4,0-0.7-0.1-1.1-0.2c-1-0.4-1.7-1.4-1.7-2.5V81.4H2.7c-1.5,0-2.7-1.2-2.7-2.7v-76
		C0,1.2,1.2,0,2.7,0h116.5c1.5,0,2.7,1.2,2.7,2.7v75.9c0,1.5-1.2,2.7-2.7,2.7H53L27.2,106C26.7,106.6,26,106.8,25.3,106.8z"/>
</g>
<g>
	<g>
		<path class="st1" d="M30.8,116.3c-0.4,0-0.8-0.1-1.1-0.2c-1-0.4-1.7-1.5-1.7-2.6V89.8H7.4c-1.6,0-2.8-1.3-2.8-2.8V7.8
			c0-1.6,1.3-2.8,2.8-2.8h120.4c1.6,0,2.8,1.3,2.8,2.8v79.2c0,1.6-1.3,2.8-2.8,2.8H59.4l-26.6,25.8C32.2,116,31.5,116.3,30.8,116.3z
			 M10.2,84.1h20.5c1.6,0,2.8,1.3,2.8,2.8v19.9l22.7-21.9c0.5-0.5,1.2-0.8,2-0.8H125V10.6H10.2V84.1z"/>
	</g>
	<g>
		<path class="st1" d="M161.4,126.1c-0.7,0-1.4-0.3-2-0.8l-20-19.3H87.9c-1.6,0-2.8-1.3-2.8-2.8v-14c0-1.6,1.3-2.8,2.8-2.8
			s2.8,1.3,2.8,2.8v11.2h49.9c0.7,0,1.4,0.3,2,0.8l16,15.5v-13.5c0-1.6,1.3-2.8,2.8-2.8h14.9V46h-45.3c-1.6,0-2.8-1.3-2.8-2.8
			s1.3-2.8,2.8-2.8H179c1.6,0,2.8,1.3,2.8,2.8v60c0,1.6-1.3,2.8-2.8,2.8h-14.9v17.3c0,1.1-0.7,2.2-1.7,2.6
			C162.1,126,161.7,126.1,161.4,126.1z"/>
	</g>
</g>
</svg>
