<?xml version="1.0" encoding="utf-8"?>
<!-- Generator: Adobe Illustrator 24.3.0, SVG Export Plug-In . SVG Version: 6.00 Build 0)  -->
<svg version="1.1" id="Layer_1" xmlns="http://www.w3.org/2000/svg" xmlns:xlink="http://www.w3.org/1999/xlink" x="0px" y="0px"
	 viewBox="0 0 123.8 120.7" style="enable-background:new 0 0 123.8 120.7;" xml:space="preserve">
<style type="text/css">
	.st0{fill:#FFFFFF;}
	.st1{fill:#3B6579;}
</style>
<circle class="st0" cx="32.4" cy="79.2" r="32.4"/>
<g>
	<g>
		<path class="st1" d="M61.2,46H46.4c-0.9,0-1.6-0.7-1.6-1.6V29.7c0-0.9,0.7-1.6,1.6-1.6h14.8c0.9,0,1.6,0.7,1.6,1.6v14.8
			C62.8,45.3,62.1,46,61.2,46z M48,42.9h11.7V31.2H48V42.9z"/>
	</g>
	<g>
		<path class="st1" d="M53.8,24.9c-1.7,0-3.1-1.4-3.1-3.2V3.2c0-1.7,1.4-3.2,3.1-3.2c1.7,0,3.1,1.4,3.1,3.2v18.6
			C56.9,23.5,55.5,24.9,53.8,24.9z"/>
	</g>
	<g>
		<path class="st1" d="M100.9,24.9c-1.7,0-3.1-1.4-3.1-3.2V3.2c0-1.7,1.4-3.2,3.1-3.2c1.7,0,3.1,1.4,3.1,3.2v18.6
			C104,23.5,102.6,24.9,100.9,24.9z"/>
	</g>
	<g>
		<path class="st1" d="M112.9,84.2c-1.7,0-3.1-1.4-3.1-3.1c0-1.7,1.4-3.1,3.1-3.1c2.5,0,4.6-2.7,4.6-6c0-1.7,1.4-3.1,3.1-3.1
			c1.7,0,3.1,1.4,3.1,3.1C123.8,78.7,119,84.2,112.9,84.2z"/>
	</g>
	<g>
		<path class="st1" d="M34,24.7c-1.7,0-3.2-1.4-3.2-3.2c0-6.8,4.9-12.3,10.9-12.3c1.7,0,3.2,1.4,3.2,3.2s-1.4,3.2-3.2,3.2
			c-2.5,0-4.6,2.7-4.6,6C37.1,23.3,35.7,24.7,34,24.7z"/>
	</g>
	<g>
		<path class="st1" d="M120.7,24.7c-1.7,0-3.1-1.4-3.1-3.2c0-3.2-2.1-6-4.6-6c-1.7,0-3.1-1.4-3.1-3.2s1.4-3.2,3.1-3.2
			c6,0,10.9,5.5,10.9,12.3C123.8,23.3,122.4,24.7,120.7,24.7z"/>
	</g>
	<g>
		<path class="st1" d="M120.7,75.1c-1.7,0-3.1-1.4-3.1-3.1V21.6c0-1.7,1.4-3.2,3.1-3.2c1.7,0,3.1,1.4,3.1,3.2v50.4
			C123.8,73.7,122.4,75.1,120.7,75.1z"/>
	</g>
	<g>
		<path class="st1" d="M112.9,84.2H73.6c-1.7,0-3.1-1.4-3.1-3.1c0-1.7,1.4-3.1,3.1-3.1h39.3c1.7,0,3.1,1.4,3.1,3.1
			C116.1,82.8,114.7,84.2,112.9,84.2z"/>
	</g>
	<g>
		<path class="st1" d="M34,54c-1.7,0-3.2-1.4-3.2-3.1V21.6c0-1.7,1.4-3.2,3.2-3.2s3.2,1.4,3.2,3.2v29.3C37.1,52.6,35.7,54,34,54z"/>
	</g>
	<g>
		<path class="st1" d="M112.9,15.6H41.7c-1.7,0-3.2-1.4-3.2-3.2s1.4-3.2,3.2-3.2h71.2c1.7,0,3.1,1.4,3.1,3.2
			C116.1,14.2,114.7,15.6,112.9,15.6z"/>
	</g>
	<g>
		<path class="st1" d="M84.7,46H69.9c-0.9,0-1.6-0.7-1.6-1.6V29.7c0-0.9,0.7-1.6,1.6-1.6h14.8c0.9,0,1.6,0.7,1.6,1.6v14.8
			C86.3,45.3,85.6,46,84.7,46z M71.5,42.9h11.7V31.2H71.5V42.9z"/>
	</g>
	<g>
		<path class="st1" d="M84.7,71.2H69.9c-0.9,0-1.6-0.7-1.6-1.6V54.9c0-0.9,0.7-1.6,1.6-1.6h14.8c0.9,0,1.6,0.7,1.6,1.6v14.8
			C86.3,70.6,85.6,71.2,84.7,71.2z M71.5,68.1h11.7V56.4H71.5V68.1z"/>
	</g>
	<g>
		<path class="st1" d="M108.3,46H93.5c-0.9,0-1.6-0.7-1.6-1.6V29.7c0-0.9,0.7-1.6,1.6-1.6h14.8c0.9,0,1.6,0.7,1.6,1.6v14.8
			C109.9,45.3,109.2,46,108.3,46z M95.1,42.9h11.7V31.2H95.1V42.9z"/>
	</g>
	<g>
		<path class="st1" d="M108.3,71.2H93.5c-0.9,0-1.6-0.7-1.6-1.6V54.9c0-0.9,0.7-1.6,1.6-1.6h14.8c0.9,0,1.6,0.7,1.6,1.6v14.8
			C109.9,70.6,109.2,71.2,108.3,71.2z M95.1,68.1h11.7V56.4H95.1V68.1z"/>
	</g>
	<g>
		<path class="st1" d="M40.1,120.7c-20.3,0-36.8-16.5-36.8-36.8c0-20.3,16.5-36.8,36.8-36.8c18.9,0,35,14.8,36.6,33.6
			c0.1,1,0.1,2.1,0.1,3.1C76.9,104.2,60.4,120.7,40.1,120.7z M40.1,53.5c-16.8,0-30.5,13.7-30.5,30.5c0,16.8,13.7,30.4,30.4,30.4
			s30.5-13.7,30.5-30.4c0-0.9,0-1.7-0.1-2.6C69.2,65.7,55.8,53.5,40.1,53.5z"/>
	</g>
	<g>
		<path class="st1" d="M40.1,89.4c-3.5,0-5.4-2.8-5.4-5.5c0-1.4,0.5-2.7,1.3-3.7c1-1.1,2.4-1.8,4.1-1.8c3.5,0,5.4,2.8,5.4,5.5
			c0,1.4-0.5,2.7-1.3,3.7C43.2,88.8,41.8,89.4,40.1,89.4z M40.1,81.6c-0.7,0-1.3,0.2-1.7,0.7c-0.4,0.4-0.6,1-0.6,1.7
			c0,0.2,0.1,2.4,2.2,2.4c0.7,0,1.3-0.2,1.7-0.7c0.4-0.4,0.6-1,0.6-1.7C42.4,83.7,42.3,81.6,40.1,81.6z"/>
	</g>
	<g>
		
			<rect x="35.1" y="76.2" transform="matrix(0.1914 -0.9815 0.9815 0.1914 -42.9156 103.4098)" class="st1" width="12.3" height="3.1"/>
	</g>
	<g>
		<path class="st1" d="M40.1,85.4c-0.1,0-0.2,0-0.3,0c-0.8-0.2-1.4-1-1.2-1.9l2.4-12.1c0.2-0.9,1-1.4,1.8-1.2s1.4,1,1.2,1.9
			l-2.4,12.1C41.5,84.9,40.9,85.4,40.1,85.4z"/>
	</g>
	<g>
		<rect x="40.1" y="82.3" class="st1" width="19.9" height="3.1"/>
	</g>
	<g>
		<path class="st1" d="M60,85.5H40.1c-0.9,0-1.6-0.7-1.6-1.6s0.7-1.6,1.6-1.6H60c0.9,0,1.6,0.7,1.6,1.6S60.9,85.5,60,85.5z"/>
	</g>
</g>
</svg>
