<?xml version="1.0" encoding="utf-8"?>
<!-- Generator: Adobe Illustrator 24.3.0, SVG Export Plug-In . SVG Version: 6.00 Build 0)  -->
<svg version="1.1" id="Layer_1" xmlns="http://www.w3.org/2000/svg" xmlns:xlink="http://www.w3.org/1999/xlink" x="0px" y="0px"
	 viewBox="0 0 136.6 162.5" style="enable-background:new 0 0 136.6 162.5;" xml:space="preserve">
<style type="text/css">
	.st0{fill:#FFFFFF;}
	.st1{fill:#D54324;}
</style>
<path class="st0" d="M116.4,0H28.3c-1.6,0-2.9,1.3-2.9,2.9v8.4H17c-1.6,0-2.9,1.3-2.9,2.9v11.1H2.9c-1.6,0-2.9,1.3-2.9,2.9v118.9
	c0,1.6,1.3,2.9,2.9,2.9h88.1c1.6,0,2.9-1.3,2.9-2.9v-11.1h11.1c1.6,0,2.9-1.3,2.9-2.9v-8.4h8.4c1.6,0,2.9-1.3,2.9-2.9V2.9
	C119.4,1.3,118.1,0,116.4,0z"/>
<g>
	<g>
		<path class="st1" d="M110.6,37.5v121.9c0,1.7-1.3,3-3,3H17.2c-1.7,0-3-1.4-3-3V37.5c0-1.7,1.4-3,3-3h90.4
			C109.2,34.5,110.6,35.9,110.6,37.5z M104.6,156.5V40.5H20.2v115.9L104.6,156.5L104.6,156.5z"/>
	</g>
	<g>
		<path class="st1" d="M125,23.1v121.9c0,1.7-1.3,3-3,3h-14.4c-1.7,0-3-1.4-3-3c0-1.7,1.3-3,3-3H119V26.1H34.6v11.4c0,1.7-1.3,3-3,3
			c-1.7,0-3-1.3-3-3V23.1c0-1.7,1.4-3,3-3H122C123.6,20.1,125,21.5,125,23.1z"/>
	</g>
	<g>
		<path class="st1" d="M136.6,11.5v121.9c0,1.7-1.4,3-3,3H122c-1.7,0-3-1.4-3-3c0-1.7,1.3-3,3-3h8.6V14.5H46.2v8.6c0,1.7-1.3,3-3,3
			c-1.7,0-3-1.4-3-3V11.5c0-1.7,1.3-3,3-3h90.4C135.2,8.5,136.6,9.9,136.6,11.5z"/>
	</g>
</g>
<g>
	<g>
		<path class="st1" d="M62.3,136.9c-0.7,0-1.4-0.4-1.9-0.9L31.6,96.3c-0.6-0.8-0.6-1.9,0-2.7c0.6-0.8,1.7-1.1,2.6-0.8l11.6,4V65.5
			c0-1.3,1-2.3,2.3-2.3h28.5c1.3,0,2.3,1,2.3,2.3v31.3l11.6-4c0.9-0.3,2,0,2.6,0.8c0.6,0.8,0.6,1.9,0,2.7L64.2,136
			C63.8,136.6,63.1,136.9,62.3,136.9z M39.6,99.5l22.7,31.2l22.7-31.2l-7.7,2.7c-0.7,0.2-1.5,0.1-2.1-0.3c-0.6-0.4-1-1.1-1-1.9V67.8
			H50.4V100c0,0.8-0.4,1.4-1,1.9c-0.6,0.4-1.4,0.5-2.1,0.3L39.6,99.5z"/>
	</g>
</g>
</svg>
