<?xml version="1.0" encoding="utf-8"?>
<!-- Generator: Adobe Illustrator 24.3.0, SVG Export Plug-In . SVG Version: 6.00 Build 0)  -->
<svg version="1.1" id="Layer_1" xmlns="http://www.w3.org/2000/svg" xmlns:xlink="http://www.w3.org/1999/xlink" x="0px" y="0px"
	 viewBox="0 0 159.8 143.3" style="enable-background:new 0 0 159.8 143.3;" xml:space="preserve">
<style type="text/css">
	.st0{fill:#FFFFFF;}
	.st1{fill:#D54324;stroke:#D54324;stroke-miterlimit:10;}
</style>
<path class="st0" d="M115.8,21.2h-15.1V3c0-1.6-1.3-3-3-3H48.9c-1.6,0-3,1.3-3,3v18.2H30.9C13.9,21.2,0,35.1,0,52.1v48.8
	c0,17,13.9,30.9,30.9,30.9h84.9c17,0,30.9-13.9,30.9-30.9V52.1C146.6,35.1,132.8,21.2,115.8,21.2z M51.9,5.9h42.8v15.3H51.9V5.9z
	 M73.3,99.5c-12.7,0-23-10.3-23-23c0-12.7,10.3-23,23-23s22.9,10.3,22.9,23C96.3,89.2,86,99.5,73.3,99.5z"/>
<g>
	<g>
		<path class="st1" d="M128.4,142.8H43.5c-17,0-30.9-13.9-30.9-30.9V63c0-17,13.9-30.9,30.9-30.9h84.9c17,0,30.9,13.9,30.9,30.9
			v48.8C159.3,128.9,145.4,142.8,128.4,142.8z M43.5,38.1c-13.7,0-24.9,11.2-24.9,24.9v48.8c0,13.8,11.2,24.9,24.9,24.9h84.9
			c13.8,0,24.9-11.2,24.9-24.9V63c0-13.8-11.2-24.9-24.9-24.9L43.5,38.1L43.5,38.1z"/>
	</g>
	<g>
		<path class="st1" d="M86,116.4c-15.9,0-28.9-13-28.9-28.9S70,58.6,86,58.6c15.9,0,28.9,13,28.9,28.9
			C114.9,103.4,101.9,116.4,86,116.4z M86,64.5c-12.7,0-23,10.3-23,23s10.3,22.9,23,22.9s22.9-10.3,22.9-22.9S98.6,64.5,86,64.5z"/>
	</g>
	<g>
		<path class="st1" d="M86,105.7c-1.6,0-3-1.3-3-3V72.2c0-1.6,1.3-3,3-3c1.6,0,3,1.3,3,3v30.6C88.9,104.4,87.6,105.7,86,105.7z"/>
	</g>
	<g>
		<path class="st1" d="M101.2,90.4H70.7c-1.6,0-3-1.3-3-3c0-1.6,1.3-3,3-3h30.6c1.6,0,3,1.3,3,3C104.2,89.1,102.9,90.4,101.2,90.4z"
			/>
	</g>
	<g>
		<path class="st1" d="M110.3,36.5c-1.6,0-3-1.3-3-3V16.9H64.6v16.6c0,1.6-1.3,3-3,3c-1.6,0-3-1.3-3-3V13.9c0-1.6,1.3-3,3-3h48.8
			c1.6,0,3,1.3,3,3v19.6C113.3,35.2,112,36.5,110.3,36.5z"/>
	</g>
</g>
</svg>
