<?xml version="1.0" encoding="utf-8"?>
<!-- Generator: Adobe Illustrator 24.3.0, SVG Export Plug-In . SVG Version: 6.00 Build 0)  -->
<svg version="1.1" id="Layer_1" xmlns="http://www.w3.org/2000/svg" xmlns:xlink="http://www.w3.org/1999/xlink" x="0px" y="0px"
	 viewBox="0 0 135.6 159" style="enable-background:new 0 0 135.6 159;" xml:space="preserve">
<style type="text/css">
	.st0{fill:#FFFFFF;}
	.st1{fill:#D54324;}
</style>
<path class="st0" d="M82.2,0H7.7C5.3,0,3.4,1.9,3.4,4.3V134c0,2.4,1.9,4.3,4.3,4.3h74.5c2.4,0,4.3-1.9,4.3-4.3V4.3
	C86.5,1.9,84.6,0,82.2,0z"/>
<g>
	<g>
		<path class="st1" d="M99.6,159H19.3c-2.6,0-4.6-2.1-4.6-4.6V14.6c0-2.6,2.1-4.6,4.6-4.6h80.3c2.6,0,4.6,2.1,4.6,4.6v139.7
			C104.2,156.9,102.1,159,99.6,159z M23.9,149.7h71V19.2h-71V149.7z"/>
	</g>
	<g>
		<path class="st1" d="M116.1,159H4.6c-2.6,0-4.6-2.1-4.6-4.6s2.1-4.6,4.6-4.6h111.4c2.6,0,4.6,2.1,4.6,4.6
			C120.7,156.9,118.6,159,116.1,159z"/>
	</g>
	<g>
		<path class="st1" d="M86.2,71.6H32.5c-1.3,0-2.3-1-2.3-2.3V28.3c0-1.3,1-2.3,2.3-2.3h53.7c1.3,0,2.3,1,2.3,2.3v40.9
			C88.5,70.6,87.4,71.6,86.2,71.6z M34.8,67h49V30.6h-49V67z"/>
	</g>
	<g>
		<path class="st1" d="M111.6,73.8h-12c-1.3,0-2.3-1-2.3-2.3s1-2.3,2.3-2.3h12c1.3,0,2.3,1,2.3,2.3S112.8,73.8,111.6,73.8z"/>
	</g>
	<g>
		<path class="st1" d="M123.5,115.6c-5.4,0-9.7-5.2-9.7-11.6V76.6c0-1.3,1-2.3,2.3-2.3s2.3,1,2.3,2.3V104c0,3.8,2.3,7,5.1,7
			c2.8,0,5.1-3.2,5.1-7V48.8c0-1.3,1-2.3,2.3-2.3c1.3,0,2.3,1,2.3,2.3V104C133.2,110.4,128.9,115.6,123.5,115.6z"/>
	</g>
	<g>
		<path class="st1" d="M116.1,78.9c-1.3,0-2.3-1-2.3-2.3c0-1.5-1-2.8-2.2-2.8c-1.3,0-2.3-1-2.3-2.3s1-2.3,2.3-2.3
			c3.8,0,6.8,3.3,6.8,7.5C118.4,77.9,117.3,78.9,116.1,78.9z"/>
	</g>
	<g>
		<path class="st1" d="M130.9,53.4c-2.6,0-4.6-2.1-4.6-4.6V38c0-2.6,2.1-4.6,4.6-4.6c2.6,0,4.6,2.1,4.6,4.6v10.8
			C135.5,51.4,133.5,53.4,130.9,53.4z"/>
	</g>
	<g>
		<path class="st1" d="M130.9,42.6c-1.4,0-2.8-0.6-3.7-1.8L117.4,28c-1.6-2-1.2-4.9,0.8-6.5c2-1.6,4.9-1.2,6.5,0.9l9.8,12.8
			c1.6,2,1.2,4.9-0.9,6.5C132.9,42.3,131.9,42.6,130.9,42.6z"/>
	</g>
</g>
</svg>
