<?xml version="1.0" encoding="utf-8"?>
<!-- Generator: Adobe Illustrator 24.3.0, SVG Export Plug-In . SVG Version: 6.00 Build 0)  -->
<svg version="1.1" id="Layer_1" xmlns="http://www.w3.org/2000/svg" xmlns:xlink="http://www.w3.org/1999/xlink" x="0px" y="0px"
	 viewBox="0 0 144.3 146.9" style="enable-background:new 0 0 144.3 146.9;" xml:space="preserve">
<style type="text/css">
	.st0{fill:#FFFFFF;}
	.st1{fill:#D54324;}
</style>
<g>
	<path class="st0" d="M95.7,59.6H74.6c-1.5,0-2.7,1.2-2.7,2.7v70.1c0,1.5,1.2,2.7,2.7,2.7h21.2c1.5,0,2.7-1.2,2.7-2.7V62.3
		C98.5,60.8,97.2,59.6,95.7,59.6z"/>
	<path class="st0" d="M60,83H38.8c-1.5,0-2.7,1.2-2.7,2.7v46.8c0,1.5,1.2,2.7,2.7,2.7H60c1.5,0,2.7-1.2,2.7-2.7V85.7
		C62.7,84.2,61.5,83,60,83z"/>
	<path class="st0" d="M24.2,106.3H3c-1.5,0-2.7,1.2-2.7,2.7v23.4c0,1.5,1.2,2.7,2.7,2.7h21.2c1.5,0,2.7-1.2,2.7-2.7v-23.4
		C26.9,107.6,25.7,106.3,24.2,106.3z"/>
	<path class="st0" d="M131.5,36.2h-21.2c-1.5,0-2.7,1.2-2.7,2.7v93.5c0,1.5,1.2,2.7,2.7,2.7h21.2c1.5,0,2.7-1.2,2.7-2.7V39
		C134.2,37.4,133,36.2,131.5,36.2z"/>
	<path class="st0" d="M132.4,4.7l-21.1-4.7c-1.1-0.2-2.2,0.2-2.8,1.1c-0.6,0.9-0.7,2.1-0.1,3l6.6,10.3L1.3,86.8
		c-1.3,0.8-1.6,2.5-0.8,3.8c0.5,0.8,1.4,1.3,2.3,1.3c0.5,0,1-0.1,1.5-0.4l113.7-72.3l6.9,10.9c0.5,0.8,1.4,1.3,2.3,1.3
		c0.2,0,0.3,0,0.5,0c1.1-0.2,2-1,2.2-2.1L134.5,8C134.8,6.5,133.9,5.1,132.4,4.7z"/>
</g>
<g>
	<g>
		<path class="st1" d="M103.5,146.9H81.3c-1.6,0-2.9-1.3-2.9-2.9V70.4c0-1.6,1.3-2.9,2.9-2.9h22.2c1.6,0,2.9,1.3,2.9,2.9v73.7
			C106.4,145.7,105.1,146.9,103.5,146.9z M84.2,141.2h16.5V73.3H84.2V141.2z"/>
	</g>
	<g>
		<path class="st1" d="M66,146.9H43.8c-1.6,0-2.9-1.3-2.9-2.9V95c0-1.6,1.3-2.9,2.9-2.9H66c1.6,0,2.9,1.3,2.9,2.9v49.1
			C68.9,145.7,67.6,146.9,66,146.9z M46.6,141.2h16.5V97.8H46.6V141.2z"/>
	</g>
	<g>
		<path class="st1" d="M28.4,146.9H6.2c-1.6,0-2.9-1.3-2.9-2.9v-24.6c0-1.6,1.3-2.9,2.9-2.9h22.2c1.6,0,2.9,1.3,2.9,2.9v24.6
			C31.3,145.7,30,146.9,28.4,146.9z M9.1,141.2h16.5v-18.8H9.1V141.2z"/>
	</g>
	<g>
		<path class="st1" d="M141.1,146.9h-22.2c-1.6,0-2.9-1.3-2.9-2.9V45.9c0-1.6,1.3-2.9,2.9-2.9h22.2c1.6,0,2.9,1.3,2.9,2.9v98.2
			C144,145.7,142.7,146.9,141.1,146.9z M121.8,141.2h16.5V48.7h-16.5V141.2z"/>
	</g>
	<g>
		<path class="st1" d="M5.9,101.4c-0.9,0-1.9-0.5-2.4-1.3c-0.9-1.3-0.5-3.1,0.9-4l121.4-77.1c1.3-0.9,3.1-0.5,4,0.9
			c0.9,1.3,0.5,3.1-0.9,4L7.4,100.9C6.9,101.2,6.4,101.4,5.9,101.4z"/>
	</g>
	<g>
		<path class="st1" d="M136.5,37.8c-1,0-1.9-0.5-2.4-1.3L116.8,9.4c-0.6-1-0.6-2.2,0.1-3.2c0.7-0.9,1.8-1.4,3-1.2l22.2,4.9
			c1.6,0.3,2.5,1.9,2.2,3.4l-4.9,22.2c-0.2,1.1-1.2,2-2.3,2.2C136.9,37.8,136.7,37.8,136.5,37.8z M125.4,12.1l9.8,15.4l2.8-12.6
			L125.4,12.1z"/>
	</g>
</g>
</svg>
