<?xml version="1.0" encoding="utf-8"?>
<!-- Generator: Adobe Illustrator 24.3.0, SVG Export Plug-In . SVG Version: 6.00 Build 0)  -->
<svg version="1.1" id="Layer_1" xmlns="http://www.w3.org/2000/svg" xmlns:xlink="http://www.w3.org/1999/xlink" x="0px" y="0px"
	 viewBox="0 0 155.1 133" style="enable-background:new 0 0 155.1 133;" xml:space="preserve">
<style type="text/css">
	.st0{fill:#FFFFFF;}
	.st1{fill:#D54324;}
</style>
<g>
	<g>
		<path class="st0" d="M69.8,122.6c-2.4,0-4.2-1.6-5.7-3l-13.3-13.3c-11.3-11.3-22.6-22.6-33.7-34C8.2,63.2,2.9,53.5,0.7,42.7
			C-1.7,30.6,1.8,19.9,11,10.8c6.2-6.1,13.5-9.6,21.8-10.5c1.1-0.1,2.2-0.2,3.3-0.2c11.2,0,22.2,6,31.7,17.4c0.7,0.8,1.3,1.7,2,2.6
			c0.6-0.8,1.2-1.5,1.8-2.2C82.4,4.7,93.9-1.3,106.3,0.2c14,1.7,24.6,9.4,30.5,22.2c4,8.7,3.8,18.3-0.8,29.4
			c-3.3,8-8.5,15.4-16.4,23.4l-44.2,44.3C74,121,72.2,122.6,69.8,122.6z"/>
	</g>
</g>
<g>
	<g>
		<path class="st1" d="M83.5,133c-2.5,0-4.3-1.6-5.8-3.1l-13.6-13.7C52.5,104.7,41,93.1,29.5,81.4c-9.1-9.3-14.6-19.2-16.8-30.2
			c-2.5-12.4,1.1-23.4,10.5-32.7c6.3-6.2,13.8-9.8,22.3-10.7c1.1-0.1,2.3-0.2,3.4-0.2c11.5,0,22.7,6.2,32.5,17.9
			c0.7,0.9,1.4,1.7,2.1,2.6c0.6-0.8,1.2-1.5,1.8-2.3C96.4,12.2,108.3,6,121,7.6c14.4,1.8,25.2,9.6,31.3,22.7
			c4.1,8.9,3.8,18.7-0.8,30.1c-3.3,8.2-8.7,15.8-16.8,24l-45.2,45.4C87.8,131.4,86,133,83.5,133z M49,15.1c-0.8,0-1.7,0-2.6,0.1
			c-6.7,0.7-12.7,3.6-17.8,8.6c-7.6,7.5-10.4,16-8.4,25.8c1.9,9.6,6.7,18.2,14.7,26.4c11.4,11.7,23,23.2,34.5,34.8l13.6,13.7
			c0.2,0.2,0.3,0.3,0.4,0.4c0.1-0.1,0.3-0.3,0.5-0.5l45.3-45.4c7.4-7.4,12.2-14.2,15.2-21.5c3.9-9.5,4.1-17.1,0.9-24.1
			c-5-10.8-13.5-17-25.3-18.4c-0.9-0.1-1.9-0.2-2.8-0.2c-8.8,0-17.6,5.3-26.1,15.6c-1,1.2-2,2.6-3,4l-1.6,2.2c-0.7,1-1.8,1.5-3,1.5
			h0c-1.2,0-2.3-0.6-3-1.5c-0.6-0.8-1.1-1.5-1.7-2.3c-1-1.4-2-2.8-3.1-4.1C69.9,23.3,60.5,15.1,49,15.1z"/>
	</g>
</g>
</svg>
