<?xml version="1.0" encoding="utf-8"?>
<!-- Generator: Adobe Illustrator 24.3.0, SVG Export Plug-In . SVG Version: 6.00 Build 0)  -->
<svg version="1.1" id="Layer_1" xmlns="http://www.w3.org/2000/svg" xmlns:xlink="http://www.w3.org/1999/xlink" x="0px" y="0px"
	 viewBox="0 0 80 47" style="enable-background:new 0 0 80 47;" xml:space="preserve">
<style type="text/css">
	.st0{enable-background:new    ;}
	.st1{fill:#083A4F;}
</style>
<g class="st0">
	<path class="st1" d="M32.4,47H10.7V31.5c0-6.3,0.6-11.2,1.7-14.9c1.1-3.6,3.1-6.9,6.1-9.8c3-2.9,6.8-5.1,11.4-6.8L34.1,9
		c-4.3,1.4-7.4,3.4-9.3,6c-1.9,2.6-2.9,6-3,10.3h10.5V47z M68.5,47H46.9V31.5c0-6.3,0.6-11.3,1.7-14.9c1.1-3.6,3.2-6.8,6.2-9.7
		c3-2.9,6.8-5.1,11.4-6.8L70.3,9c-4.3,1.4-7.4,3.4-9.3,6c-1.9,2.6-2.9,6-3,10.3h10.5V47z"/>
</g>
</svg>
