<?xml version="1.0" encoding="utf-8"?>
<!-- Generator: Adobe Illustrator 24.3.0, SVG Export Plug-In . SVG Version: 6.00 Build 0)  -->
<svg version="1.1" id="Layer_1" xmlns="http://www.w3.org/2000/svg" xmlns:xlink="http://www.w3.org/1999/xlink" x="0px" y="0px"
	 viewBox="0 0 148.5 166.6" style="enable-background:new 0 0 148.5 166.6;" xml:space="preserve">
<style type="text/css">
	.st0{fill:#FFFFFF;}
	.st1{fill:#D54324;}
</style>
<path class="st0" d="M128.2,0H13.3c-2.2,0-4.1,1.8-4.1,4.1V26H2.1C0.9,26,0,26.9,0,28c0,1.1,0.9,2,2,2h7.2v19.9H2c-1.1,0-2,0.9-2,2
	s0.9,2,2,2h7.2v19.9H2c-1.1,0-2,0.9-2,2c0,1.1,0.9,2,2,2h7.2v19.9H2c-1.1,0-2,0.9-2,2s0.9,2,2,2h7.2v19.8H2c-1.1,0-2,0.9-2,2
	s0.9,2,2,2h7.2v21.9c0,2.3,1.8,4.1,4.1,4.1h114.9c2.2,0,4.1-1.8,4.1-4.1V4.1C132.3,1.8,130.5,0,128.2,0z"/>
<g>
	<g>
		<path class="st1" d="M144.3,166.6H25.1c-2.3,0-4.2-1.9-4.2-4.2v-149c0-2.3,1.9-4.2,4.2-4.2h119.2c2.3,0,4.2,1.9,4.2,4.2v149
			C148.5,164.7,146.6,166.6,144.3,166.6z M29.3,158.1H140V17.5H29.3V158.1z"/>
	</g>
	<g>
		<path class="st1" d="M36.8,40.3H13.4c-1.2,0-2.1-1-2.1-2.1s0.9-2.1,2.1-2.1h23.4c1.2,0,2.1,1,2.1,2.1S38,40.3,36.8,40.3z"/>
	</g>
	<g>
		<path class="st1" d="M36.8,65.1H13.4c-1.2,0-2.1-0.9-2.1-2.1c0-1.2,0.9-2.1,2.1-2.1h23.4c1.2,0,2.1,1,2.1,2.1
			C38.9,64.2,38,65.1,36.8,65.1z"/>
	</g>
	<g>
		<path class="st1" d="M36.8,89.9H13.4c-1.2,0-2.1-0.9-2.1-2.1c0-1.2,0.9-2.1,2.1-2.1h23.4c1.2,0,2.1,0.9,2.1,2.1
			C38.9,89,38,89.9,36.8,89.9z"/>
	</g>
	<g>
		<path class="st1" d="M36.8,114.8H13.4c-1.2,0-2.1-0.9-2.1-2.1c0-1.2,0.9-2.1,2.1-2.1h23.4c1.2,0,2.1,0.9,2.1,2.1
			S38,114.8,36.8,114.8z"/>
	</g>
	<g>
		<path class="st1" d="M36.8,139.6H13.4c-1.2,0-2.1-0.9-2.1-2.1s0.9-2.1,2.1-2.1h23.4c1.2,0,2.1,0.9,2.1,2.1S38,139.6,36.8,139.6z"
			/>
	</g>
</g>
<g>
	<g>
		<path class="st1" d="M82,55.7c-5.4,0-9.8-4.4-9.8-9.8S76.6,36,82,36s9.8,4.4,9.8,9.8C91.8,51.2,87.4,55.7,82,55.7z M82,38.6
			c-4,0-7.3,3.3-7.3,7.3s3.3,7.3,7.3,7.3s7.3-3.3,7.3-7.3C89.3,41.8,86,38.6,82,38.6z"/>
	</g>
	<g>
		<path class="st1" d="M82,83.8c-5.4,0-9.8-4.4-9.8-9.8c0-5.4,4.4-9.8,9.8-9.8s9.8,4.4,9.8,9.8C91.8,79.4,87.4,83.8,82,83.8z
			 M82,66.7c-4,0-7.3,3.3-7.3,7.3s3.3,7.3,7.3,7.3s7.3-3.3,7.3-7.3C89.3,70,86,66.7,82,66.7z"/>
	</g>
	<g>
		<path class="st1" d="M82,111.9c-5.4,0-9.8-4.4-9.8-9.8c0-5.4,4.4-9.8,9.8-9.8s9.8,4.4,9.8,9.8C91.8,107.5,87.4,111.9,82,111.9z
			 M82,94.8c-4,0-7.3,3.3-7.3,7.3s3.3,7.3,7.3,7.3s7.3-3.3,7.3-7.3C89.3,98.1,86,94.8,82,94.8z"/>
	</g>
	<g>
		<path class="st1" d="M82,139.6c-5.4,0-9.8-4.4-9.8-9.8s4.4-9.8,9.8-9.8s9.8,4.4,9.8,9.8C91.8,135.2,87.4,139.6,82,139.6z
			 M82,122.5c-4,0-7.3,3.3-7.3,7.3s3.3,7.3,7.3,7.3s7.3-3.3,7.3-7.3C89.3,125.8,86,122.5,82,122.5z"/>
	</g>
</g>
<g>
	<g>
		<path class="st1" d="M81.4,49.9C81.3,49.9,81.3,49.9,81.4,49.9c-0.6,0-1-0.2-1.3-0.6l-8.3-9.6c-0.6-0.7-0.6-1.8,0.2-2.5
			c0.7-0.6,1.8-0.5,2.4,0.2l7.2,8.2l19.7-18.8c0.7-0.7,1.8-0.6,2.5,0.1c0.7,0.7,0.6,1.8-0.1,2.5l-21,20
			C82.2,49.7,81.8,49.9,81.4,49.9z"/>
	</g>
</g>
<g>
	<g>
		<path class="st1" d="M81.4,78.4C81.3,78.4,81.3,78.4,81.4,78.4c-0.6,0-1-0.2-1.3-0.6l-8.3-9.6c-0.6-0.7-0.6-1.8,0.2-2.5
			c0.7-0.6,1.8-0.6,2.4,0.2l7.2,8.2l19.7-18.8c0.7-0.7,1.8-0.6,2.5,0.1c0.7,0.7,0.6,1.8-0.1,2.5l-21,20
			C82.2,78.3,81.8,78.4,81.4,78.4z"/>
	</g>
</g>
<g>
	<g>
		<path class="st1" d="M81.4,106.6C81.3,106.6,81.3,106.6,81.4,106.6c-0.6,0-1-0.2-1.3-0.6l-8.3-9.6c-0.6-0.7-0.6-1.8,0.2-2.5
			c0.7-0.6,1.8-0.6,2.4,0.2l7.2,8.2l19.7-18.8c0.7-0.7,1.8-0.6,2.5,0.1c0.7,0.7,0.6,1.8-0.1,2.5l-21,20
			C82.2,106.4,81.8,106.6,81.4,106.6z"/>
	</g>
</g>
<g>
	<g>
		<path class="st1" d="M81.4,134.3C81.3,134.3,81.3,134.3,81.4,134.3c-0.6,0-1-0.2-1.3-0.6l-8.3-9.6c-0.6-0.7-0.6-1.8,0.2-2.5
			c0.7-0.6,1.8-0.6,2.4,0.2l7.2,8.2l19.7-18.8c0.7-0.7,1.8-0.6,2.5,0.1c0.7,0.7,0.6,1.8-0.1,2.5l-21,20
			C82.2,134.1,81.8,134.3,81.4,134.3z"/>
	</g>
</g>
</svg>
