<svg width="28" height="28" xmlns="http://www.w3.org/2000/svg">

 <g>
  <title>background</title>
  <rect fill="none" id="canvas_background" height="402" width="582" y="-1" x="-1"/>
 </g>
 <g>
  <title fill="#429bcb">Layer 1</title>
  <path id="svg_1" fill="#429bcb" d="m22.0545,5.94619c2.224,2.22413 2.224,5.83011 0,8.05431l-1.4478,1.4478c-0.3124,0.3125 -0.3124,0.819 0,1.1314l0.4795,0.4795c0.3124,0.3124 0.8189,0.3124 1.1313,0l1.4478,-1.4479c3.1136,-3.1137 3.1136,-8.16218 0,-11.27596c-3.1136,-3.11379 -8.1618,-3.11379 -11.2755,0l-1.4478,1.44787c-0.3124,0.31242 -0.3124,0.81897 0,1.1314l0.4795,0.47945c0.3124,0.31243 0.8189,0.31243 1.1313,0.00001l1.4478,-1.44788c2.224,-2.22413 5.8299,-2.22413 8.0539,0z"/>
  <path id="svg_2" fill="#429bcb" d="m5.94601,22.0538c2.22403,2.2242 5.82989,2.2242 8.05389,0l1.4478,-1.4478c0.3124,-0.3125 0.819,-0.3125 1.1314,0l0.4794,0.4794c0.3124,0.3125 0.3124,0.819 0,1.1314l-1.4478,1.4479c-3.1136,3.1138 -8.16184,3.1138 -11.27547,0c-3.11364,-3.1138 -3.11364,-8.1622 0,-11.276l1.4478,-1.4479c0.31241,-0.3124 0.81894,-0.3124 1.13135,0l0.47944,0.4795c0.31241,0.3124 0.31241,0.819 0,1.1314l-1.44781,1.4479c-2.22403,2.2241 -2.22403,5.8301 0,8.0542z"/>
  <path id="svg_3" fill="#429bcb" d="m17.8593,9.80361c-0.3515,-0.35148 -0.9213,-0.35148 -1.2728,0l-6.78115,6.78149c-0.35146,0.3515 -0.35146,0.9213 0,1.2728l0.33805,0.338c0.3514,0.3515 0.9213,0.3515 1.2727,0l6.7812,-6.7814c0.3514,-0.3515 0.3514,-0.9214 0,-1.2729l-0.338,-0.33799z"/>
 </g>
</svg>