<?xml version="1.0" encoding="utf-8"?>
<!-- Generator: Adobe Illustrator 24.3.0, SVG Export Plug-In . SVG Version: 6.00 Build 0)  -->
<svg version="1.1" id="Layer_1" xmlns="http://www.w3.org/2000/svg" xmlns:xlink="http://www.w3.org/1999/xlink" x="0px" y="0px"
	 viewBox="0 0 89.5 121.1" style="enable-background:new 0 0 89.5 121.1;" xml:space="preserve">
<style type="text/css">
	.st0{fill:#4197CB;}
	.st1{fill:#3C667B;}
</style>
<path class="st0" d="M38,0.5c-21,0-38,17.1-38,38.1c0,11.8,5.4,22.7,14.7,30L36,111.1c0.4,0.8,1.2,1.2,2,1.2c0.9,0,1.6-0.5,2-1.2
	l21.3-42.5c9.4-7.3,14.7-18.2,14.7-30C76.1,17.6,59,0.5,38,0.5z"/>
<g>
	<g>
		<path class="st1" d="M48.3,121.1c-0.9,0-1.8-0.5-2.2-1.3L23,73.7c-10.1-7.9-15.9-19.7-16-32.5C7.1,18.5,25.5,0,48.3,0
			C71,0,89.5,18.5,89.5,41.2c0,12.8-5.8,24.6-16,32.5l-23.1,46C50,120.6,49.2,121.1,48.3,121.1z M48.3,4.9
			c-20,0-36.3,16.3-36.3,36.3c0,11.5,5.3,22,14.5,29c0.3,0.2,0.5,0.5,0.7,0.9l21.1,42.2L69.4,71c0.2-0.3,0.4-0.6,0.7-0.9
			c9.2-6.9,14.5-17.5,14.5-28.9C84.6,21.2,68.3,4.9,48.3,4.9z"/>
	</g>
	<g>
		<path class="st1" d="M48.3,56.5c-8.4,0-15.3-6.8-15.3-15.3C33,32.8,39.8,26,48.3,26c8.4,0,15.3,6.8,15.3,15.3
			C63.5,49.7,56.7,56.5,48.3,56.5z M48.3,30.9c-5.7,0-10.4,4.7-10.4,10.4s4.7,10.4,10.4,10.4S58.6,47,58.6,41.2S54,30.9,48.3,30.9z"
			/>
	</g>
</g>
</svg>
