<?xml version="1.0" encoding="utf-8"?>
<!-- Generator: Adobe Illustrator 23.1.0, SVG Export Plug-In . SVG Version: 6.00 Build 0)  -->
<svg version="1.1" id="Layer_1" xmlns="http://www.w3.org/2000/svg" xmlns:xlink="http://www.w3.org/1999/xlink" x="0px" y="0px"
	 viewBox="0 0 283.5 283.5" style="enable-background:new 0 0 283.5 283.5;" xml:space="preserve">
<style type="text/css">
	.st0{display:none;clip-path:url(#SVGID_2_);fill:#C24398;}
	.st1{display:none;clip-path:url(#SVGID_2_);fill:#419BCB;}
	.st2{clip-path:url(#SVGID_2_);fill:#FFFFFF;}
</style>
<g>
	<defs>
		<rect id="SVGID_1_" width="283.5" height="283.5"/>
	</defs>
	<clipPath id="SVGID_2_">
		<use xlink:href="#SVGID_1_"  style="overflow:visible;"/>
	</clipPath>
	<rect x="20.8" y="57.7" class="st0" width="225.1" height="190"/>
	<path class="st1" d="M141.7,84.2c-21,0-38,17.1-38,38.1c0,11.8,5.4,22.7,14.7,30l21.3,42.5c0.4,0.8,1.2,1.2,2,1.2
		c0.9,0,1.6-0.5,2-1.2l21.3-42.5c9.4-7.3,14.7-18.2,14.7-30C179.8,101.3,162.7,84.2,141.7,84.2z M141.7,136.7
		c-7.8,0-14.1-6.3-14.1-14.1c0-7.8,6.3-14.1,14.1-14.1c7.8,0,14.1,6.3,14.1,14.1C155.9,130.4,149.5,136.7,141.7,136.7z"/>
	<path class="st2" d="M141.7,202.6c-0.9,0-1.8-0.5-2.2-1.3l-23.1-46c-10.1-7.9-15.9-19.7-16-32.5c0-22.8,18.5-41.3,41.2-41.3
		c22.7,0,41.2,18.5,41.2,41.2c0,12.8-5.8,24.6-16,32.5l-23.1,46C143.5,202,142.7,202.6,141.7,202.6 M141.7,86.3
		c-20,0-36.3,16.3-36.3,36.3c0,11.5,5.3,22,14.5,29c0.3,0.2,0.5,0.5,0.7,0.9l21.1,42.2l21.1-42.2c0.2-0.3,0.4-0.6,0.7-0.9
		c9.2-6.9,14.5-17.5,14.5-28.9C178,102.6,161.8,86.3,141.7,86.3"/>
	<path class="st2" d="M141.7,137.7c-8.4,0-15.3-6.8-15.3-15.3c0-8.4,6.8-15.3,15.3-15.3c8.4,0,15.3,6.8,15.3,15.3
		C157,130.9,150.1,137.7,141.7,137.7 M141.7,112.1c-5.7,0-10.4,4.7-10.4,10.4c0,5.7,4.7,10.4,10.4,10.4c5.7,0,10.4-4.7,10.4-10.4
		C152.1,116.7,147.5,112.1,141.7,112.1"/>
</g>
</svg>
