<?xml version="1.0" encoding="utf-8"?>
<!-- Generator: Adobe Illustrator 24.3.0, SVG Export Plug-In . SVG Version: 6.00 Build 0)  -->
<svg version="1.1" id="Layer_1" xmlns="http://www.w3.org/2000/svg" xmlns:xlink="http://www.w3.org/1999/xlink" x="0px" y="0px"
	 viewBox="0 0 144.6 160" style="enable-background:new 0 0 144.6 160;" xml:space="preserve">
<style type="text/css">
	.st0{fill:#FFFFFF;}
	.st1{fill:#D54324;}
	.st2{fill:#D54324;stroke:#D54324;stroke-width:2;stroke-miterlimit:10;}
</style>
<path class="st0" d="M115.4,112c0.3-0.5,0.6-1.1,0.9-1.6c0.2-0.4,0.4-0.8,0.7-1.2c0.2-0.3,0.3-0.6,0.5-0.9c0.3-0.6,0.6-1.2,0.9-1.9
	c0-0.1,0.1-0.2,0.1-0.3c3.5-7.6,5.4-15.9,5.4-24.8v0c0-2-0.1-4.1-0.3-6.1c0,0,0,0,0,0c-0.1-1-0.2-2-0.4-2.9c0,0,0,0,0-0.1
	c-0.2-1-0.3-1.9-0.5-2.9c0,0,0,0,0-0.1c-0.2-0.9-0.4-1.9-0.7-2.8l0,0c-1.2-4.6-2.9-9.1-5.3-13.5l0,0c-10.1-18.6-29.8-31.2-52.4-31.2
	c-0.7,0-1.3,0.3-1.7,0.8c-0.6,0.4-1,1-1,1.8v54.5c0,0-0.2,1.2-0.8,1.6l-48.2,26.1c-1,0.6-1.4,1.8-0.9,2.8c0,0.1,0.1,0.1,0.1,0.1
	c0,0.1,0.1,0.1,0.1,0.2c10.8,19.8,31.2,31.1,52.3,31.2v0c0.9,0,1.7,0,2.6-0.1c0.1,0,0.2,0,0.3,0c0.5,0,1-0.1,1.4-0.1
	c0.5,0,1.1-0.1,1.6-0.1c0.4,0,0.7-0.1,1.1-0.1c0.6-0.1,1.3-0.1,1.9-0.2c0.3-0.1,0.6-0.1,0.9-0.1c0.7-0.1,1.4-0.2,2.1-0.4
	c0.3-0.1,0.5-0.1,0.8-0.2c0.7-0.1,1.4-0.3,2.1-0.5c0.2-0.1,0.4-0.1,0.7-0.2c0.7-0.2,1.5-0.4,2.2-0.6c0.2-0.1,0.3-0.1,0.5-0.2
	c0.8-0.2,1.6-0.5,2.3-0.8c0.1,0,0.1-0.1,0.2-0.1c2.6-1,5.2-2.1,7.8-3.5c9.5-5.2,17.1-12.6,22.4-21.2
	C115.2,112.3,115.3,112.1,115.4,112z"/>
<g>
	<g>
		<g>
			<path class="st1" d="M72.3,159.5c-39.6,0-71.8-32.2-71.8-71.8c0-22.2,10.5-43.4,28-56.9l-6.3-6.3c-0.5-0.5-0.8-1.2-0.8-1.9
				c0-0.7,0.3-1.4,0.8-1.9L33.2,9.9c0.5-0.5,1.2-0.8,1.9-0.8s1.4,0.3,1.9,0.8l10.5,10.5c2.2-0.8,4.5-1.5,6.8-2.1V3.1
				c0-1.5,1.2-2.6,2.6-2.6h30.9c1.5,0,2.6,1.2,2.6,2.6v15.1c2.3,0.6,4.6,1.3,6.8,2.1l10.5-10.5c0.5-0.5,1.2-0.8,1.9-0.8
				s1.4,0.3,1.9,0.8l10.9,10.9c0.5,0.5,0.8,1.2,0.8,1.9c0,0.7-0.3,1.4-0.8,1.9l-6.3,6.3c17.6,13.5,28,34.8,28,56.9
				C144.1,127.3,111.9,159.5,72.3,159.5z M34.5,29.2c0.5,0.5,0.8,1.3,0.8,2.1c-0.1,0.8-0.5,1.5-1.1,1.9C16.4,45.7,5.8,66.1,5.8,87.7
				c0,36.7,29.8,66.5,66.5,66.5s66.5-29.8,66.5-66.5c0-21.6-10.6-42-28.3-54.4c-0.6-0.5-1.1-1.2-1.1-1.9c-0.1-0.8,0.2-1.5,0.8-2.1
				l6.6-6.6l-7.2-7.2l-9.8,9.8c-0.5,0.5-1.2,0.8-1.9,0.8c-0.3,0-0.7-0.1-1-0.2c-3.1-1.3-6.4-2.3-9.7-3c-1.2-0.3-2.1-1.3-2.1-2.6V5.8
				H59.5v14.5c0,1.2-0.8,2.3-2.1,2.6c-3.3,0.8-6.6,1.8-9.7,3c-0.3,0.1-0.6,0.2-1,0.2c-0.7,0-1.4-0.3-1.9-0.8L35,15.5l-7.2,7.2
				L34.5,29.2z"/>
			<path class="st1" d="M87.7,1c1.2,0,2.1,1,2.1,2.1v15.5c2.5,0.6,5,1.4,7.4,2.3L108,10.2c0.4-0.4,1-0.6,1.5-0.6
				c0.6,0,1.1,0.2,1.5,0.6L122,21.2c0.4,0.4,0.6,1,0.6,1.5c0,0.6-0.2,1.1-0.6,1.5l-6.7,6.7c17.8,13.5,28.3,34.5,28.3,56.9
				c0,39.3-32,71.3-71.3,71.3C33,159,1,127,1,87.7c0-22.3,10.5-43.4,28.3-56.9l-6.7-6.7c-0.4-0.4-0.6-1-0.6-1.5
				c0-0.6,0.2-1.1,0.6-1.5l10.9-10.9c0.4-0.4,1-0.6,1.5-0.6c0.5,0,1.1,0.2,1.5,0.6L47.3,21c2.4-0.9,4.9-1.7,7.4-2.3V3.1
				c0-1.2,1-2.1,2.1-2.1H87.7 M46.8,25.6c-0.6,0-1.1-0.2-1.5-0.6L35,14.8l-7.9,7.9l6.9,6.9c0.5,0.5,0.7,1.1,0.6,1.7
				c0,0.6-0.4,1.2-0.9,1.6C15.9,45.4,5.3,65.9,5.3,87.7c0,36.9,30.1,67,67,67s67-30.1,67-67c0-21.8-10.7-42.3-28.5-54.8
				c-0.5-0.4-0.8-0.9-0.9-1.6s0.2-1.2,0.6-1.7l6.9-6.9l-7.9-7.9L99.3,25c-0.4,0.4-1,0.6-1.5,0.6c-0.3,0-0.5,0-0.8-0.1
				c-3.2-1.3-6.5-2.3-9.8-3c-1-0.2-1.7-1.1-1.7-2.1v-15H59v15c0,1-0.7,1.9-1.7,2.1c-3.3,0.8-6.6,1.8-9.8,3
				C47.3,25.5,47,25.6,46.8,25.6 M87.7,0H56.9c-1.7,0-3.1,1.4-3.1,3.1v14.7c-2.1,0.5-4.1,1.2-6.2,1.9L37.3,9.5
				c-0.6-0.6-1.4-0.9-2.2-0.9s-1.6,0.3-2.2,0.9L21.9,20.5C21.3,21,21,21.8,21,22.7s0.3,1.6,0.9,2.2l5.9,5.9C10.4,44.4,0,65.6,0,87.7
				C0,127.6,32.4,160,72.3,160c39.9,0,72.3-32.4,72.3-72.3c0-22.1-10.4-43.3-27.8-57l5.9-5.9c0.6-0.6,0.9-1.4,0.9-2.2
				s-0.3-1.6-0.9-2.2L111.8,9.5c-0.6-0.6-1.4-0.9-2.2-0.9c-0.8,0-1.6,0.3-2.2,0.9L97.1,19.8c-2-0.7-4.1-1.4-6.2-1.9V3.1
				C90.9,1.4,89.4,0,87.7,0L87.7,0z M60,6.3h24.6v14c0,1.5,1,2.7,2.4,3.1c3.3,0.8,6.5,1.8,9.6,3c0.4,0.1,0.8,0.2,1.2,0.2
				c0.8,0,1.6-0.3,2.2-0.9l9.5-9.5l6.5,6.5l-6.2,6.2c-0.7,0.7-1,1.6-0.9,2.5c0.1,0.9,0.6,1.8,1.3,2.3c17.6,12.4,28.1,32.6,28.1,54
				c0,36.4-29.6,66-66,66c-36.4,0-66-29.6-66-66c0-21.5,10.5-41.7,28.1-54c0.8-0.5,1.2-1.4,1.3-2.3c0.1-0.9-0.2-1.8-0.9-2.5
				l-6.2-6.2l6.5-6.5l9.5,9.5c0.6,0.6,1.4,0.9,2.2,0.9c0.4,0,0.8-0.1,1.2-0.2c3.1-1.2,6.3-2.2,9.7-3c1.5-0.3,2.5-1.6,2.5-3.1V6.3
				L60,6.3z"/>
		</g>
	</g>
	<g>
		<g>
			<path class="st1" d="M21.4,62.4c-2.7,0-4.8-2.2-4.8-4.8s2.2-4.8,4.8-4.8s4.8,2.2,4.8,4.8C26.2,60.2,24,62.4,21.4,62.4z"/>
			<path class="st1" d="M21.4,53.2c2.4,0,4.3,1.9,4.3,4.3s-1.9,4.3-4.3,4.3S17,59.9,17,57.6S19,53.2,21.4,53.2 M21.4,52.2
				c-2.9,0-5.3,2.4-5.3,5.3c0,2.9,2.4,5.3,5.3,5.3s5.3-2.4,5.3-5.3S24.3,52.2,21.4,52.2L21.4,52.2z"/>
		</g>
	</g>
	<g>
		<g>
			<path class="st1" d="M41.7,42.6c-2.7,0-4.8-2.2-4.8-4.8s2.2-4.8,4.8-4.8s4.8,2.2,4.8,4.8C46.6,40.4,44.4,42.6,41.7,42.6z"/>
			<path class="st1" d="M41.7,33.5c2.4,0,4.3,1.9,4.3,4.3s-1.9,4.3-4.3,4.3s-4.3-1.9-4.3-4.3C37.4,35.4,39.4,33.5,41.7,33.5
				 M41.7,32.5c-2.9,0-5.3,2.4-5.3,5.3c0,2.9,2.4,5.3,5.3,5.3s5.3-2.4,5.3-5.3S44.7,32.5,41.7,32.5L41.7,32.5z"/>
		</g>
	</g>
</g>
<path class="st2" d="M120.7,115.7c0.3-0.5,0.6-1,0.9-1.5c0.2-0.4,0.4-0.7,0.6-1.1c0.2-0.3,0.3-0.6,0.4-0.9c0.3-0.6,0.6-1.2,0.9-1.8
	c0-0.1,0.1-0.2,0.1-0.3c3.3-7.1,5.1-15.1,5.1-23.4v0c0-1.9-0.1-3.8-0.3-5.7c0,0,0,0,0,0c-0.1-0.9-0.2-1.9-0.4-2.8c0,0,0,0,0-0.1
	c-0.1-0.9-0.3-1.8-0.5-2.7c0,0,0,0,0-0.1c-0.2-0.9-0.4-1.8-0.6-2.7l0,0c-1.1-4.3-2.8-8.6-5-12.8l0,0c-9.5-17.5-28.1-29.4-49.4-29.4
	c-0.6,0-1.2,0.3-1.6,0.8c-0.6,0.4-0.9,1-0.9,1.7v51.4c0,0-0.2,1.2-0.8,1.5l-45.4,24.6c-1,0.5-1.3,1.7-0.8,2.7c0,0.1,0.1,0.1,0.1,0.1
	c0,0.1,0,0.1,0.1,0.2c10.1,18.7,29.5,29.4,49.4,29.4v0c0.8,0,1.6,0,2.5-0.1c0.1,0,0.2,0,0.3,0c0.5,0,0.9-0.1,1.4-0.1
	c0.5,0,1-0.1,1.5-0.1c0.3,0,0.7-0.1,1-0.1c0.6-0.1,1.2-0.1,1.8-0.2c0.3,0,0.6-0.1,0.8-0.1c0.6-0.1,1.3-0.2,1.9-0.4
	c0.2-0.1,0.5-0.1,0.7-0.2c0.7-0.1,1.3-0.3,2-0.5c0.2-0.1,0.4-0.1,0.6-0.2c0.7-0.2,1.4-0.4,2.1-0.6c0.2-0.1,0.3-0.1,0.4-0.1
	c0.7-0.2,1.5-0.5,2.2-0.8c0.1,0,0.1,0,0.2-0.1c2.5-0.9,4.9-2,7.3-3.3c9-4.9,16.1-11.9,21.1-20C120.5,116,120.6,115.8,120.7,115.7z
	 M27.5,113l45.4-24.6c0.5-0.3,0.8-0.7,1-1.3c0.1-0.2,0.2-0.5,0.2-0.8V34.5c28.1,0.8,50.8,23.9,50.8,52.2c0,0.7,0,1.3-0.1,2
	c-0.3,6.8-1.9,13.6-4.7,19.7c-0.1,0.1-0.1,0.2-0.1,0.3c-0.2,0.5-0.5,1.1-0.8,1.6c-0.2,0.3-0.3,0.6-0.4,0.9c-0.2,0.3-0.4,0.7-0.6,1
	c-0.3,0.5-0.5,1-0.8,1.4c-0.1,0.1-0.2,0.2-0.2,0.4c-6.1,9.9-15.4,17.6-26.5,21.7c0,0-0.1,0-0.1,0c-0.7,0.2-1.4,0.5-2.1,0.7
	c-0.1,0-0.2,0.1-0.4,0.1c-0.7,0.2-1.3,0.4-2,0.6c-0.2,0.1-0.3,0.1-0.5,0.1c-0.6,0.2-1.3,0.3-1.9,0.4c-0.2,0-0.4,0.1-0.6,0.1
	c-0.6,0.1-1.2,0.2-1.9,0.3c-0.2,0-0.5,0.1-0.7,0.1c-0.6,0.1-1.2,0.2-1.8,0.2c-0.3,0-0.6,0.1-0.8,0.1c-0.5,0.1-1,0.1-1.5,0.1
	c-0.4,0-0.7,0.1-1.1,0.1c-0.2,0-0.4,0-0.6,0C55.9,139.6,37.4,130.2,27.5,113z"/>
</svg>
