<?xml version="1.0" encoding="utf-8"?>
<!-- Generator: Adobe Illustrator 24.3.0, SVG Export Plug-In . SVG Version: 6.00 Build 0)  -->
<svg version="1.1" id="Layer_1" xmlns="http://www.w3.org/2000/svg" xmlns:xlink="http://www.w3.org/1999/xlink" x="0px" y="0px"
	 viewBox="0 0 119.4 157.2" style="enable-background:new 0 0 119.4 157.2;" xml:space="preserve">
<style type="text/css">
	.st0{fill:#FFFFFF;}
	.st1{fill:#D54324;}
	.st2{fill:#D54324;stroke:#D54324;stroke-width:5;stroke-miterlimit:10;}
</style>
<g>
	<g>
		<path class="st0" d="M48.8,147.3C48.8,147.3,48.8,147.3,48.8,147.3c-0.8,0-1.5-0.4-1.9-1.1L5.9,73.5c-0.1-0.2-0.2-0.4-0.2-0.6
			C1.9,65.6,0,58,0,50.2C0,22.5,22.5,0,50.2,0c13.4,0,26,5.2,35.5,14.7s14.7,22.1,14.7,35.5c0,7.8-2,15.6-5.8,23
			c-0.1,0.2-0.1,0.3-0.2,0.4c-1,1.9-39.4,65.4-43.8,72.6C50.3,146.9,49.6,147.3,48.8,147.3z"/>
	</g>
</g>
<g>
	<g>
		<g>
			<path class="st1" d="M65.7,156.2c-1.1,0-2.2-0.6-2.7-1.6L22,81.8c-0.1-0.2-0.2-0.5-0.3-0.7c-3.8-7.4-5.7-15.2-5.7-23
				c0-28.3,23-51.2,51.2-51.2c13.7,0,26.6,5.3,36.2,15c9.7,9.7,15,22.5,15,36.2c0,8-2,15.8-5.9,23.4c-0.1,0.2-0.2,0.4-0.3,0.5
				c-0.9,1.7-15.1,25.2-42,69.6l-1.8,3C67.9,155.6,66.8,156.2,65.7,156.2L65.7,156.2L65.7,156.2z M65.8,146.8
				c15.8-26,40.1-66.3,40.9-67.9l0.1-0.1c3.5-6.7,5.3-13.7,5.3-20.8c0-12-4.7-23.3-13.2-31.8c-8.5-8.5-19.8-13.2-31.8-13.2
				c-24.8,0-45,20.2-45,45c0,7.1,1.8,14.1,5.4,20.8c0.1,0.2,0.2,0.3,0.2,0.5L65.8,146.8z"/>
			<path class="st1" d="M67.2,7.8c13.4,0,26,5.2,35.5,14.7s14.7,22.1,14.7,35.5c0,7.8-2,15.6-5.8,23c-0.1,0.2-0.1,0.3-0.2,0.4
				c-1,1.9-39.4,65.4-43.8,72.6c-0.4,0.6-1.1,1-1.8,1c0,0,0,0,0,0c-0.8,0-1.5-0.4-1.8-1.1L22.8,81.4c-0.1-0.2-0.2-0.4-0.2-0.6
				c-3.8-7.3-5.7-14.9-5.7-22.7C16.9,30.4,39.5,7.8,67.2,7.8 M65.8,148.8c12.9-21.4,40.9-67.6,41.8-69.4c0,0,0-0.1,0.1-0.1
				c3.6-6.9,5.4-14,5.4-21.2c0-12.3-4.8-23.8-13.4-32.5S79.4,12.1,67.2,12.1c-25.3,0-46,20.6-46,46c0,7.2,1.8,14.4,5.5,21.2
				c0.1,0.2,0.1,0.3,0.2,0.5L65.8,148.8 M67.2,5.8c-28.8,0-52.2,23.4-52.2,52.2c0,8,2,15.9,5.8,23.4c0.1,0.3,0.2,0.6,0.4,0.8
				l41.1,72.7c0.7,1.3,2.1,2.1,3.5,2.1h0h0.1c1.4,0,2.8-0.8,3.5-2l1.3-2.2c27-44.6,41.2-68.2,42.5-70.4c0.1-0.2,0.2-0.4,0.3-0.7
				c4-7.7,6-15.7,6-23.8c0-14-5.4-27.1-15.3-36.9S81.1,5.8,67.2,5.8L67.2,5.8z M28.7,79c-0.1-0.2-0.2-0.4-0.3-0.6
				C25,71.8,23.2,65,23.2,58.1c0-24.2,19.7-44,44-44c11.7,0,22.8,4.6,31.1,12.9c8.3,8.3,12.9,19.3,12.9,31.1
				c0,6.9-1.8,13.7-5.2,20.3l-0.1,0.1c-0.8,1.5-23.7,39.4-40,66.3L28.7,79L28.7,79z"/>
		</g>
	</g>
</g>
<g>
	<g>
		<path class="st2" d="M67.2,81.2c-13.8,0-25-11.2-25-25c0-6.7,2.6-12.9,7.3-17.7c0.3-0.3,0.7-0.3,1,0s0.3,0.7,0,1
			C46,44,43.6,49.9,43.6,56.2c0,13,10.6,23.6,23.6,23.6s23.6-10.6,23.6-23.6c0-12.8-10.2-23.2-22.9-23.6v7c0,0.4-0.3,0.7-0.7,0.7
			c-0.4,0-0.7-0.3-0.7-0.7v-7.6c0-0.4,0.3-0.7,0.7-0.7c13.8,0,25,11.2,25,25C92.1,70,80.9,81.2,67.2,81.2z"/>
	</g>
	<g>
		<path class="st2" d="M67.2,56.9c-0.2,0-0.3-0.1-0.5-0.2L55.9,45.9c-0.3-0.3-0.3-0.7,0-1s0.7-0.3,1,0l10.8,10.8
			c0.3,0.3,0.3,0.7,0,1C67.5,56.8,67.3,56.9,67.2,56.9z"/>
	</g>
</g>
</svg>
