<svg width="500" height="500" xmlns="http://www.w3.org/2000/svg">

 <g>
  <title>background</title>
  <rect fill="none" id="canvas_background" height="402" width="582" y="-1" x="-1"/>
 </g>
 <g>
  <title>Layer 1</title>
  <rect fill="#ffffff" y="-0.000003" x="0" width="500" ry="250" rx="250" id="rect2990-1" height="500"/>
  <path fill="#27aae1" id="rect2989" d="m309.85,119.949997c-35.47079,0.89879 -63.925,29.93138 -63.925,65.625c0,5.13827 0.55122,10.16156 1.675,14.975c-54.56567,-2.74126 -102.94287,-28.87749 -135.325,-68.6c-5.65147,9.69191 -8.9,20.98158 -8.9,33.025c0,22.77467 11.60809,42.85438 29.225,54.625c-10.75722,-0.34428 -20.89606,-3.30758 -29.75,-8.225c-0.005,0.27282 0,0.57069 0,0.85c0,31.80402 22.6379,58.3088 52.675,64.35c-5.50852,1.49406 -11.31075,2.3 -17.3,2.3c-4.23534,0 -8.34203,-0.40198 -12.35,-1.175c8.36022,26.08109 32.57506,45.07385 61.3,45.6c-22.46937,17.61043 -50.73534,28.1 -81.5,28.1c-5.29416,0 -10.53675,-0.28938 -15.675,-0.9c29.06272,18.63683 63.55282,29.5 100.625,29.5c120.76552,0 186.8,-100.04058 186.8,-186.8c0,-2.8452 -0.0517,-5.70577 -0.175,-8.525c12.82294,-9.2372 23.95454,-20.80776 32.75,-33.975c-11.7641,5.22922 -24.41586,8.77146 -37.7,10.35c13.56346,-8.1199 23.97061,-20.98166 28.875,-36.325c-12.68652,7.52877 -26.73993,13.00085 -41.7,15.95c-11.97197,-12.75798 -29.04137,-20.725 -47.925,-20.725c-0.56646,0 -1.13698,-0.0143 -1.7,0z"/>
 </g>
</svg>