<svg version="1.1" id="Layer_1" xmlns="http://www.w3.org/2000/svg" x="0" y="0" viewBox="0 0 170.7 111.8" xml:space="preserve"><style>.st1{fill:none;stroke:#3c667b;stroke-width:6;stroke-linecap:round;stroke-linejoin:round;stroke-miterlimit:22.9256}.st2{fill:#3c667b}</style><path d="M153.3 42.5l-12.7-6.8C130 28.3 125-.3 116.1-.1c1.1 0-11.9.1-102.9.1-3.7 0-7.3 3.4-8 7L0 38.9v39.3s-.4 6.7 10.7 6.7 12.8.3 12.8.3c0 9.8 7.9 17.7 17.7 17.7 9.8 0 17.7-7.9 17.7-17.7h46c0 9.8 7.9 17.7 17.7 17.7 9.8 0 17.7-7.9 17.7-17.7l12.1-.3c3.6 0 8-3.1 8-6.7V55.5c.1-2.2-.6-8.6-7.1-13z" fill="#fff"/><path class="st1" d="M108.4 6.5v35.3M108.4 41.8h39.7M29.4 90.4s-1.6-.4-12.8-.3c-11.1 0-10.7-6.7-10.7-6.7V44.1l5.2-31.8c.7-3.6 4.4-7 8-7 91 0 104-.1 102.9-.1 8.9-.2 14 28.4 24.6 35.8l12.7 6.8c6.5 4.4 7.2 10.7 7.2 12.9v22.7c0 3.6-4.4 6.7-8 6.7l-12.1.3M110.2 90.1h-45"/><path class="st1" d="M128.5 72.7c9.8 0 17.7 7.9 17.7 17.7 0 9.8-7.9 17.7-17.7 17.7-9.8 0-17.7-7.9-17.7-17.7 0-9.8 7.9-17.7 17.7-17.7zM47.1 72.7c9.8 0 17.7 7.9 17.7 17.7 0 9.8-7.9 17.7-17.7 17.7-9.8 0-17.7-7.9-17.7-17.7 0-9.8 7.9-17.7 17.7-17.7z"/><path class="st2" d="M52.7 45.3c-.4 0-.7-.1-1.1-.3-1-.6-1.4-1.9-.8-2.9l14-24.3c.6-1 1.9-1.4 2.9-.8 1 .6 1.4 1.9.8 2.9l-14 24.3c-.4.7-1.1 1.1-1.8 1.1zM64.9 45.3c-.4 0-.7-.1-1.1-.3-1-.6-1.4-1.9-.8-2.9l14-24.3c.6-1 1.9-1.4 2.9-.8 1 .6 1.4 1.9.8 2.9l-14 24.3c-.3.7-1 1.1-1.8 1.1zM77.6 45.3c-.4 0-.7-.1-1.1-.3-1-.6-1.4-1.9-.8-2.9l14-24.3c.6-1 1.9-1.4 2.9-.8 1 .6 1.4 1.9.8 2.9l-14 24.3c-.3.7-1.1 1.1-1.8 1.1z"/></svg>