<svg version="1.1" id="Layer_1" xmlns="http://www.w3.org/2000/svg" x="0" y="0" viewBox="0 0 162 128.2" xml:space="preserve"><style>.st1{fill:#3b6579}</style><path d="M153.9.5C47.3-.6 46.5.2 45.5 1.2c-.5.4-.7 1.1-.7 1.7V14c0 1.3 1.1 2.4 2.4 2.4h13.3v5.7H22.9c-.6 0-1.2.2-1.7.7L.7 43.3c-.5.5-.7 1.1-.7 1.7v55.1c0 1.3 1.1 2.4 2.4 2.4h20.7v.8c0 9.8 8 17.8 17.8 17.8s17.8-8 17.8-17.8v-.8h27.4v.8c0 9.8 8 17.8 17.8 17.8s17.8-8 17.8-17.8v-.8h7.1c1.3 0 2.4-1.1 2.4-2.4V80.7H154c1.3 0 2.4-1.1 2.4-2.4V2.9c-.2-1.3-1.2-2.4-2.5-2.4z" fill="#fff"/><path class="st1" d="M31.5 109.6H8.1c-1.3 0-2.4-1.1-2.4-2.4V52c0-.6.2-1.2.7-1.7L27 29.8c.5-.5 1-.7 1.7-.7h40c1.3 0 2.4 1.1 2.4 2.4v53.9c0 1.3-1.1 2.4-2.4 2.4-1.3 0-2.4-1.1-2.4-2.4V33.9H29.6L10.5 53v51.8h21c1.3 0 2.4 1.1 2.4 2.4 0 1.3-1.1 2.4-2.4 2.4zM94.2 109.6H62.1c-1.3 0-2.4-1.1-2.4-2.4 0-1.3 1.1-2.4 2.4-2.4h32.1c1.3 0 2.4 1.1 2.4 2.4 0 1.3-1.1 2.4-2.4 2.4z"/><path class="st1" d="M46.6 128.2c-9.8 0-17.8-8-17.8-17.8s8-17.8 17.8-17.8 17.8 8 17.8 17.8-7.9 17.8-17.8 17.8zm0-30.9c-7.2 0-13 5.9-13 13.1s5.9 13.1 13 13.1 13-5.9 13-13.1-5.8-13.1-13-13.1zM109.6 128.2c-9.8 0-17.8-8-17.8-17.8s8-17.8 17.8-17.8 17.8 8 17.8 17.8-8 17.8-17.8 17.8zm0-30.9c-7.2 0-13.1 5.9-13.1 13.1s5.9 13.1 13.1 13.1c7.2 0 13.1-5.9 13.1-13.1s-5.9-13.1-13.1-13.1z"/><path class="st1" d="M134.4 109.6h-6.9c-1.3 0-2.4-1.1-2.4-2.4 0-1.3 1.1-2.4 2.4-2.4h4.6v-17H68.7c-1.3 0-2.4-1.1-2.4-2.4 0-1.3 1.1-2.4 2.4-2.4h65.8c1.3 0 2.4 1.1 2.4 2.4v21.8c-.1 1.3-1.2 2.4-2.5 2.4z"/><path class="st1" d="M159.6 87.8h-25.1c-1.3 0-2.4-1.1-2.4-2.4 0-1.3 1.1-2.4 2.4-2.4h22.8V12.3c-37.5-.4-91.1-.7-101.9-.2v6.6h13.3c1.3 0 2.4 1.1 2.4 2.4v10.5c0 1.3-1.1 2.4-2.4 2.4-1.3 0-2.4-1.1-2.4-2.4v-8.1H52.9c-1.3 0-2.4-1.1-2.4-2.4V9.9c0-.6.3-1.3.7-1.7.9-.9 1.7-1.7 108.3-.7 1.3 0 2.4 1.1 2.4 2.4v75.5c.1 1.3-1 2.4-2.3 2.4z"/><path class="st1" d="M82.1 52.2c-.4 0-.8-.1-1.2-.3-1.1-.7-1.5-2.1-.9-3.3l15.6-27.1c.7-1.1 2.1-1.5 3.3-.9 1.1.7 1.5 2.1.9 3.3L84.1 51c-.4.7-1.2 1.2-2 1.2zM95.7 52.2c-.4 0-.8-.1-1.2-.3-1.1-.7-1.5-2.1-.9-3.3l15.6-27.1c.7-1.1 2.1-1.5 3.3-.9 1.1.7 1.5 2.1.9 3.3L97.8 51c-.5.7-1.3 1.2-2.1 1.2zM109.8 52.2c-.4 0-.8-.1-1.2-.3-1.1-.7-1.5-2.1-.9-3.3l15.6-27.1c.7-1.1 2.1-1.5 3.3-.9 1.1.7 1.5 2.1.9 3.3L111.9 51c-.5.7-1.3 1.2-2.1 1.2z"/></svg>