<svg version="1.1" id="Layer_1" xmlns="http://www.w3.org/2000/svg" x="0" y="0" viewBox="0 0 181.9 126.1" xml:space="preserve"><style>.st1{fill:#3b6579}</style><path d="M25.3 106.8c-.4 0-.7-.1-1.1-.2-1-.4-1.7-1.4-1.7-2.5V81.4H2.7c-1.5 0-2.7-1.2-2.7-2.7v-76C0 1.2 1.2 0 2.7 0h116.5c1.5 0 2.7 1.2 2.7 2.7v75.9c0 1.5-1.2 2.7-2.7 2.7H53L27.2 106c-.5.6-1.2.8-1.9.8z" fill="#fff"/><path class="st1" d="M30.8 116.3c-.4 0-.8-.1-1.1-.2-1-.4-1.7-1.5-1.7-2.6V89.8H7.4c-1.6 0-2.8-1.3-2.8-2.8V7.8C4.6 6.2 5.9 5 7.4 5h120.4c1.6 0 2.8 1.3 2.8 2.8V87c0 1.6-1.3 2.8-2.8 2.8H59.4l-26.6 25.8c-.6.4-1.3.7-2 .7zM10.2 84.1h20.5c1.6 0 2.8 1.3 2.8 2.8v19.9l22.7-21.9c.5-.5 1.2-.8 2-.8H125V10.6H10.2v73.5z"/><path class="st1" d="M161.4 126.1c-.7 0-1.4-.3-2-.8l-20-19.3H87.9c-1.6 0-2.8-1.3-2.8-2.8v-14c0-1.6 1.3-2.8 2.8-2.8s2.8 1.3 2.8 2.8v11.2h49.9c.7 0 1.4.3 2 .8l16 15.5v-13.5c0-1.6 1.3-2.8 2.8-2.8h14.9V46H131c-1.6 0-2.8-1.3-2.8-2.8s1.3-2.8 2.8-2.8h48c1.6 0 2.8 1.3 2.8 2.8v60c0 1.6-1.3 2.8-2.8 2.8h-14.9v17.3c0 1.1-.7 2.2-1.7 2.6-.3.1-.7.2-1 .2z"/></svg>