<svg version="1.1" id="Layer_1" xmlns="http://www.w3.org/2000/svg" x="0" y="0" viewBox="0 0 123.8 120.7" xml:space="preserve"><style>.st1{fill:#3b6579}</style><circle cx="32.4" cy="79.2" r="32.4" fill="#fff"/><path class="st1" d="M61.2 46H46.4c-.9 0-1.6-.7-1.6-1.6V29.7c0-.9.7-1.6 1.6-1.6h14.8c.9 0 1.6.7 1.6 1.6v14.8c0 .8-.7 1.5-1.6 1.5zM48 42.9h11.7V31.2H48v11.7zM53.8 24.9c-1.7 0-3.1-1.4-3.1-3.2V3.2c0-1.7 1.4-3.2 3.1-3.2 1.7 0 3.1 1.4 3.1 3.2v18.6c0 1.7-1.4 3.1-3.1 3.1zM100.9 24.9c-1.7 0-3.1-1.4-3.1-3.2V3.2c0-1.7 1.4-3.2 3.1-3.2 1.7 0 3.1 1.4 3.1 3.2v18.6c0 1.7-1.4 3.1-3.1 3.1zM112.9 84.2c-1.7 0-3.1-1.4-3.1-3.1 0-1.7 1.4-3.1 3.1-3.1 2.5 0 4.6-2.7 4.6-6 0-1.7 1.4-3.1 3.1-3.1 1.7 0 3.1 1.4 3.1 3.1.1 6.7-4.7 12.2-10.8 12.2zM34 24.7c-1.7 0-3.2-1.4-3.2-3.2 0-6.8 4.9-12.3 10.9-12.3 1.7 0 3.2 1.4 3.2 3.2s-1.4 3.2-3.2 3.2c-2.5 0-4.6 2.7-4.6 6 0 1.7-1.4 3.1-3.1 3.1zM120.7 24.7c-1.7 0-3.1-1.4-3.1-3.2 0-3.2-2.1-6-4.6-6-1.7 0-3.1-1.4-3.1-3.2s1.4-3.2 3.1-3.2c6 0 10.9 5.5 10.9 12.3-.1 1.9-1.5 3.3-3.2 3.3z"/><path class="st1" d="M120.7 75.1c-1.7 0-3.1-1.4-3.1-3.1V21.6c0-1.7 1.4-3.2 3.1-3.2 1.7 0 3.1 1.4 3.1 3.2V72c0 1.7-1.4 3.1-3.1 3.1zM112.9 84.2H73.6c-1.7 0-3.1-1.4-3.1-3.1 0-1.7 1.4-3.1 3.1-3.1h39.3c1.7 0 3.1 1.4 3.1 3.1.1 1.7-1.3 3.1-3.1 3.1zM34 54c-1.7 0-3.2-1.4-3.2-3.1V21.6c0-1.7 1.4-3.2 3.2-3.2s3.2 1.4 3.2 3.2v29.3c-.1 1.7-1.5 3.1-3.2 3.1zM112.9 15.6H41.7c-1.7 0-3.2-1.4-3.2-3.2s1.4-3.2 3.2-3.2h71.2c1.7 0 3.1 1.4 3.1 3.2.1 1.8-1.3 3.2-3.1 3.2zM84.7 46H69.9c-.9 0-1.6-.7-1.6-1.6V29.7c0-.9.7-1.6 1.6-1.6h14.8c.9 0 1.6.7 1.6 1.6v14.8c0 .8-.7 1.5-1.6 1.5zm-13.2-3.1h11.7V31.2H71.5v11.7zM84.7 71.2H69.9c-.9 0-1.6-.7-1.6-1.6V54.9c0-.9.7-1.6 1.6-1.6h14.8c.9 0 1.6.7 1.6 1.6v14.8c0 .9-.7 1.5-1.6 1.5zm-13.2-3.1h11.7V56.4H71.5v11.7zM108.3 46H93.5c-.9 0-1.6-.7-1.6-1.6V29.7c0-.9.7-1.6 1.6-1.6h14.8c.9 0 1.6.7 1.6 1.6v14.8c0 .8-.7 1.5-1.6 1.5zm-13.2-3.1h11.7V31.2H95.1v11.7zM108.3 71.2H93.5c-.9 0-1.6-.7-1.6-1.6V54.9c0-.9.7-1.6 1.6-1.6h14.8c.9 0 1.6.7 1.6 1.6v14.8c0 .9-.7 1.5-1.6 1.5zm-13.2-3.1h11.7V56.4H95.1v11.7z"/><path class="st1" d="M40.1 120.7c-20.3 0-36.8-16.5-36.8-36.8 0-20.3 16.5-36.8 36.8-36.8 18.9 0 35 14.8 36.6 33.6.1 1 .1 2.1.1 3.1.1 20.4-16.4 36.9-36.7 36.9zm0-67.2C23.3 53.5 9.6 67.2 9.6 84s13.7 30.4 30.4 30.4S70.5 100.7 70.5 84c0-.9 0-1.7-.1-2.6-1.2-15.7-14.6-27.9-30.3-27.9z"/><path class="st1" d="M40.1 89.4c-3.5 0-5.4-2.8-5.4-5.5 0-1.4.5-2.7 1.3-3.7 1-1.1 2.4-1.8 4.1-1.8 3.5 0 5.4 2.8 5.4 5.5 0 1.4-.5 2.7-1.3 3.7-1 1.2-2.4 1.8-4.1 1.8zm0-7.8c-.7 0-1.3.2-1.7.7-.4.4-.6 1-.6 1.7 0 .2.1 2.4 2.2 2.4.7 0 1.3-.2 1.7-.7.4-.4.6-1 .6-1.7.1-.3 0-2.4-2.2-2.4z"/><path transform="rotate(-78.966 41.304 77.752)" class="st1" d="M35.1 76.2h12.3v3.1H35.1z"/><path class="st1" d="M40.1 85.4h-.3c-.8-.2-1.4-1-1.2-1.9L41 71.4c.2-.9 1-1.4 1.8-1.2s1.4 1 1.2 1.9l-2.4 12.1c-.1.7-.7 1.2-1.5 1.2z"/><path class="st1" d="M40.1 82.3H60v3.1H40.1z"/><path class="st1" d="M60 85.5H40.1c-.9 0-1.6-.7-1.6-1.6s.7-1.6 1.6-1.6H60c.9 0 1.6.7 1.6 1.6s-.7 1.6-1.6 1.6z"/></svg>