<svg version="1.1" id="Layer_1" xmlns="http://www.w3.org/2000/svg" x="0" y="0" viewBox="0 0 120 131.9" xml:space="preserve"><style>.st1{fill:#3b6579}</style><path d="M92.5 81.8V44.2c11-1.3 19.6-10.7 19.6-22 0-12.3-10-22.2-22.2-22.2S67.8 9.9 67.8 22.2c0 3.3.7 6.4 2 9.2l-30.1 18c-4.1-5.2-10.4-8.6-17.5-8.6C9.9 40.8 0 50.7 0 63s9.9 22.2 22.2 22.2c7.1 0 13.5-3.4 17.6-8.7l30.1 18c-1.3 2.8-2.1 6-2.1 9.3C67.8 116 77.7 126 90 126s22.2-9.9 22.2-22.2c-.1-11.4-8.7-20.7-19.7-22zm-50.1-9.7c1.3-2.8 2-5.9 2-9.1s-.7-6.3-2-9.1l30.1-18c3.6 4.5 8.9 7.7 14.9 8.4v37.6c-6 .7-11.3 3.8-14.8 8.3L42.4 72.1z" fill="#fff"/><path class="st1" d="M29.6 90.7c-12.4 0-22.4-10.1-22.4-22.4s10.1-22.4 22.4-22.4S52 56 52 68.3c0 12.4-10.1 22.4-22.4 22.4zm0-39.2c-9.2 0-16.8 7.5-16.8 16.8 0 9.2 7.5 16.8 16.8 16.8s16.8-7.5 16.8-16.8c-.1-9.2-7.6-16.8-16.8-16.8z"/><path class="st1" d="M29.6 46.2c12.2 0 22.2 9.9 22.2 22.2s-9.9 22.2-22.2 22.2S7.4 80.5 7.4 68.3s9.9-22.1 22.2-22.1m0 39.1c9.4 0 17-7.6 17-17s-7.6-17-17-17-17 7.6-17 17 7.6 17 17 17m0-39.6c-12.5 0-22.7 10.2-22.7 22.7C6.9 80.8 17.1 91 29.6 91s22.7-10.2 22.7-22.7c-.1-12.5-10.2-22.6-22.7-22.6zm0 39.1c-9.1 0-16.5-7.4-16.5-16.5s7.4-16.5 16.5-16.5 16.5 7.4 16.5 16.5-7.4 16.5-16.5 16.5zM97.3 50c-12.4 0-22.4-10-22.4-22.4S85 5.1 97.3 5.1s22.4 10.1 22.4 22.4S109.7 50 97.3 50zm0-39.2c-9.2 0-16.8 7.5-16.8 16.8 0 9.2 7.5 16.8 16.8 16.8s16.8-7.5 16.8-16.8-7.5-16.8-16.8-16.8z"/><path class="st1" d="M97.3 5.4c12.2 0 22.2 9.9 22.2 22.2s-9.9 22.2-22.2 22.2-22.2-9.9-22.2-22.2c.1-12.3 10-22.2 22.2-22.2m0 39.2c9.4 0 17-7.6 17-17s-7.6-17-17-17-17 7.6-17 17c0 9.3 7.6 17 17 17m0-39.7C84.8 4.9 74.7 15 74.7 27.5c0 12.5 10.2 22.7 22.7 22.7s22.7-10.2 22.7-22.7C120 15 109.8 4.9 97.3 4.9zm0 39.2c-9.1 0-16.5-7.4-16.5-16.5s7.4-16.5 16.5-16.5 16.5 7.4 16.5 16.5-7.4 16.5-16.5 16.5zM97.3 131.6c-12.4 0-22.4-10.1-22.4-22.4S85 86.8 97.3 86.8s22.4 10.1 22.4 22.4c0 12.3-10 22.4-22.4 22.4zm0-39.2c-9.2 0-16.8 7.5-16.8 16.8S88.1 126 97.3 126s16.8-7.5 16.8-16.8-7.5-16.8-16.8-16.8z"/><path class="st1" d="M97.3 87c12.2 0 22.2 9.9 22.2 22.2s-9.9 22.2-22.2 22.2c-12.2 0-22.2-9.9-22.2-22.2S85.1 87 97.3 87m0 39.2c9.4 0 17-7.6 17-17s-7.6-17-17-17-17 7.6-17 17 7.6 17 17 17m0-39.7c-12.5 0-22.7 10.2-22.7 22.7s10.2 22.7 22.7 22.7 22.7-10.2 22.7-22.7-10.2-22.7-22.7-22.7zm0 39.2c-9.1 0-16.5-7.4-16.5-16.5s7.4-16.5 16.5-16.5 16.5 7.4 16.5 16.5-7.4 16.5-16.5 16.5z"/><g><path class="st1" d="M47 60.7c-1 0-1.9-.5-2.4-1.4-.4-.7-.5-1.4-.3-2.1.2-.7.6-1.3 1.3-1.7l33.6-20.1c.4-.3.9-.4 1.4-.4 1 0 1.9.5 2.4 1.4.8 1.3.4 3.1-1 3.9l-33.5 20c-.5.2-1 .4-1.5.4z"/><path class="st1" d="M80.6 35.2c.9 0 1.7.5 2.2 1.2.7 1.2.3 2.8-.9 3.5L48.4 60c-.4.2-.9.4-1.3.4-.9 0-1.7-.5-2.2-1.2-.7-1.2-.3-2.8.9-3.5l33.6-20.1c.3-.3.8-.4 1.2-.4m0-.5c-.6 0-1.1.2-1.6.4L45.5 55.2c-.7.4-1.2 1.1-1.4 1.9s-.1 1.6.3 2.3c.5.9 1.6 1.5 2.6 1.5.5 0 1.1-.2 1.6-.4l33.6-20.1c.7-.4 1.2-1.1 1.4-1.9.2-.8.1-1.6-.3-2.3-.6-1-1.6-1.5-2.7-1.5z"/></g><g><path class="st1" d="M80.6 101.7c-.5 0-1-.1-1.4-.4L44.9 80.8c-.7-.4-1.1-1-1.3-1.7s-.1-1.5.3-2.1c.5-.8 1.4-1.4 2.4-1.4.5 0 1 .1 1.5.4L82 96.5c1.3.8 1.8 2.5 1 3.9-.5.8-1.4 1.3-2.4 1.3z"/><path class="st1" d="M46.4 75.8c.5 0 .9.1 1.3.4l34.2 20.5c1.2.7 1.6 2.3.9 3.5-.5.8-1.3 1.2-2.2 1.2-.4 0-.9-.1-1.3-.4L45 80.6c-1.2-.7-1.6-2.3-.9-3.5.5-.8 1.4-1.3 2.3-1.3m0-.5c-1.1 0-2.1.6-2.6 1.5-.4.7-.5 1.5-.3 2.3.2.8.7 1.5 1.4 1.9L79 101.5c.5.3 1 .4 1.6.4 1.1 0 2.1-.6 2.6-1.5.4-.7.5-1.5.3-2.3-.2-.8-.7-1.5-1.4-1.9L47.9 75.8c-.4-.3-1-.5-1.5-.5z"/></g><g><path class="st1" d="M97.3 90.7c-.8 0-1.5-.3-2-.8s-.8-1.2-.8-2V48.8c0-1.5 1.3-2.8 2.8-2.8.8 0 1.5.3 2 .8s.8 1.2.8 2v39.1c0 .5-.1 1-.4 1.4-.5.9-1.4 1.4-2.4 1.4z"/><path class="st1" d="M97.3 46.2c1.4 0 2.6 1.2 2.6 2.6v39.1c0 .5-.1.9-.4 1.3-.4.8-1.3 1.2-2.2 1.2-1.4 0-2.6-1.2-2.6-2.6V48.7c.1-1.4 1.2-2.5 2.6-2.5m0-.5c-1.7 0-3.1 1.4-3.1 3.1v39.1c0 .8.3 1.6.9 2.2s1.3.9 2.2.9c1.1 0 2.1-.6 2.6-1.5.3-.5.4-1 .4-1.6V48.8c0-.8-.3-1.6-.9-2.2-.5-.6-1.2-.9-2.1-.9z"/></g></svg>