<svg version="1.1" id="Layer_1" xmlns="http://www.w3.org/2000/svg" x="0" y="0" viewBox="0 0 136.6 162.5" xml:space="preserve"><style>.st1{fill:#d54324}</style><path d="M116.4 0H28.3c-1.6 0-2.9 1.3-2.9 2.9v8.4H17c-1.6 0-2.9 1.3-2.9 2.9v11.1H2.9c-1.6 0-2.9 1.3-2.9 2.9v118.9c0 1.6 1.3 2.9 2.9 2.9H91c1.6 0 2.9-1.3 2.9-2.9V136H105c1.6 0 2.9-1.3 2.9-2.9v-8.4h8.4c1.6 0 2.9-1.3 2.9-2.9V2.9c.2-1.6-1.1-2.9-2.8-2.9z" fill="#fff"/><path class="st1" d="M110.6 37.5v121.9c0 1.7-1.3 3-3 3H17.2c-1.7 0-3-1.4-3-3V37.5c0-1.7 1.4-3 3-3h90.4c1.6 0 3 1.4 3 3zm-6 119v-116H20.2v115.9l84.4.1z"/><path class="st1" d="M125 23.1V145c0 1.7-1.3 3-3 3h-14.4c-1.7 0-3-1.4-3-3 0-1.7 1.3-3 3-3H119V26.1H34.6v11.4c0 1.7-1.3 3-3 3s-3-1.3-3-3V23.1c0-1.7 1.4-3 3-3H122c1.6 0 3 1.4 3 3z"/><path class="st1" d="M136.6 11.5v121.9c0 1.7-1.4 3-3 3H122c-1.7 0-3-1.4-3-3 0-1.7 1.3-3 3-3h8.6V14.5H46.2v8.6c0 1.7-1.3 3-3 3s-3-1.4-3-3V11.5c0-1.7 1.3-3 3-3h90.4c1.6 0 3 1.4 3 3z"/><g><path class="st1" d="M62.3 136.9c-.7 0-1.4-.4-1.9-.9L31.6 96.3c-.6-.8-.6-1.9 0-2.7.6-.8 1.7-1.1 2.6-.8l11.6 4V65.5c0-1.3 1-2.3 2.3-2.3h28.5c1.3 0 2.3 1 2.3 2.3v31.3l11.6-4c.9-.3 2 0 2.6.8.6.8.6 1.9 0 2.7L64.2 136c-.4.6-1.1.9-1.9.9zM39.6 99.5l22.7 31.2L85 99.5l-7.7 2.7c-.7.2-1.5.1-2.1-.3-.6-.4-1-1.1-1-1.9V67.8H50.4V100c0 .8-.4 1.4-1 1.9-.6.4-1.4.5-2.1.3l-7.7-2.7z"/></g></svg>