<svg version="1.1" id="Layer_1" xmlns="http://www.w3.org/2000/svg" x="0" y="0" viewBox="0 0 159.8 143.3" xml:space="preserve"><style>.st1{fill:#d54324;stroke:#d54324;stroke-miterlimit:10}</style><path d="M115.8 21.2h-15.1V3c0-1.6-1.3-3-3-3H48.9c-1.6 0-3 1.3-3 3v18.2h-15C13.9 21.2 0 35.1 0 52.1v48.8c0 17 13.9 30.9 30.9 30.9h84.9c17 0 30.9-13.9 30.9-30.9V52.1c-.1-17-13.9-30.9-30.9-30.9zM51.9 5.9h42.8v15.3H51.9V5.9zm21.4 93.6c-12.7 0-23-10.3-23-23s10.3-23 23-23 22.9 10.3 22.9 23c.1 12.7-10.2 23-22.9 23z" fill="#fff"/><path class="st1" d="M128.4 142.8H43.5c-17 0-30.9-13.9-30.9-30.9V63c0-17 13.9-30.9 30.9-30.9h84.9c17 0 30.9 13.9 30.9 30.9v48.8c0 17.1-13.9 31-30.9 31zM43.5 38.1c-13.7 0-24.9 11.2-24.9 24.9v48.8c0 13.8 11.2 24.9 24.9 24.9h84.9c13.8 0 24.9-11.2 24.9-24.9V63c0-13.8-11.2-24.9-24.9-24.9H43.5z"/><path class="st1" d="M86 116.4c-15.9 0-28.9-13-28.9-28.9S70 58.6 86 58.6c15.9 0 28.9 13 28.9 28.9 0 15.9-13 28.9-28.9 28.9zm0-51.9c-12.7 0-23 10.3-23 23s10.3 22.9 23 22.9 22.9-10.3 22.9-22.9-10.3-23-22.9-23z"/><path class="st1" d="M86 105.7c-1.6 0-3-1.3-3-3V72.2c0-1.6 1.3-3 3-3 1.6 0 3 1.3 3 3v30.6c-.1 1.6-1.4 2.9-3 2.9z"/><path class="st1" d="M101.2 90.4H70.7c-1.6 0-3-1.3-3-3 0-1.6 1.3-3 3-3h30.6c1.6 0 3 1.3 3 3-.1 1.7-1.4 3-3.1 3zM110.3 36.5c-1.6 0-3-1.3-3-3V16.9H64.6v16.6c0 1.6-1.3 3-3 3-1.6 0-3-1.3-3-3V13.9c0-1.6 1.3-3 3-3h48.8c1.6 0 3 1.3 3 3v19.6c-.1 1.7-1.4 3-3.1 3z"/></svg>