<svg version="1.1" id="Layer_1" xmlns="http://www.w3.org/2000/svg" x="0" y="0" viewBox="0 0 135.6 159" xml:space="preserve"><style>.st1{fill:#d54324}</style><path d="M82.2 0H7.7C5.3 0 3.4 1.9 3.4 4.3V134c0 2.4 1.9 4.3 4.3 4.3h74.5c2.4 0 4.3-1.9 4.3-4.3V4.3c0-2.4-1.9-4.3-4.3-4.3z" fill="#fff"/><path class="st1" d="M99.6 159H19.3c-2.6 0-4.6-2.1-4.6-4.6V14.6c0-2.6 2.1-4.6 4.6-4.6h80.3c2.6 0 4.6 2.1 4.6 4.6v139.7c0 2.6-2.1 4.7-4.6 4.7zm-75.7-9.3h71V19.2h-71v130.5z"/><path class="st1" d="M116.1 159H4.6C2 159 0 156.9 0 154.4s2.1-4.6 4.6-4.6H116c2.6 0 4.6 2.1 4.6 4.6.1 2.5-2 4.6-4.5 4.6zM86.2 71.6H32.5c-1.3 0-2.3-1-2.3-2.3v-41c0-1.3 1-2.3 2.3-2.3h53.7c1.3 0 2.3 1 2.3 2.3v40.9c0 1.4-1.1 2.4-2.3 2.4zM34.8 67h49V30.6h-49V67zM111.6 73.8h-12c-1.3 0-2.3-1-2.3-2.3s1-2.3 2.3-2.3h12c1.3 0 2.3 1 2.3 2.3s-1.1 2.3-2.3 2.3zM123.5 115.6c-5.4 0-9.7-5.2-9.7-11.6V76.6c0-1.3 1-2.3 2.3-2.3s2.3 1 2.3 2.3V104c0 3.8 2.3 7 5.1 7s5.1-3.2 5.1-7V48.8c0-1.3 1-2.3 2.3-2.3 1.3 0 2.3 1 2.3 2.3V104c0 6.4-4.3 11.6-9.7 11.6z"/><path class="st1" d="M116.1 78.9c-1.3 0-2.3-1-2.3-2.3 0-1.5-1-2.8-2.2-2.8-1.3 0-2.3-1-2.3-2.3s1-2.3 2.3-2.3c3.8 0 6.8 3.3 6.8 7.5 0 1.2-1.1 2.2-2.3 2.2zM130.9 53.4c-2.6 0-4.6-2.1-4.6-4.6V38c0-2.6 2.1-4.6 4.6-4.6 2.6 0 4.6 2.1 4.6 4.6v10.8c0 2.6-2 4.6-4.6 4.6z"/><path class="st1" d="M130.9 42.6c-1.4 0-2.8-.6-3.7-1.8L117.4 28c-1.6-2-1.2-4.9.8-6.5 2-1.6 4.9-1.2 6.5.9l9.8 12.8c1.6 2 1.2 4.9-.9 6.5-.7.6-1.7.9-2.7.9z"/></svg>