<svg version="1.1" id="Layer_1" xmlns="http://www.w3.org/2000/svg" x="0" y="0" viewBox="0 0 144.3 146.9" xml:space="preserve"><style>.st0{fill:#fff}.st1{fill:#d54324}</style><path class="st0" d="M95.7 59.6H74.6c-1.5 0-2.7 1.2-2.7 2.7v70.1c0 1.5 1.2 2.7 2.7 2.7h21.2c1.5 0 2.7-1.2 2.7-2.7V62.3c0-1.5-1.3-2.7-2.8-2.7zM60 83H38.8c-1.5 0-2.7 1.2-2.7 2.7v46.8c0 1.5 1.2 2.7 2.7 2.7H60c1.5 0 2.7-1.2 2.7-2.7V85.7c0-1.5-1.2-2.7-2.7-2.7zM24.2 106.3H3c-1.5 0-2.7 1.2-2.7 2.7v23.4c0 1.5 1.2 2.7 2.7 2.7h21.2c1.5 0 2.7-1.2 2.7-2.7V109c0-1.4-1.2-2.7-2.7-2.7zM131.5 36.2h-21.2c-1.5 0-2.7 1.2-2.7 2.7v93.5c0 1.5 1.2 2.7 2.7 2.7h21.2c1.5 0 2.7-1.2 2.7-2.7V39c0-1.6-1.2-2.8-2.7-2.8z"/><path class="st0" d="M132.4 4.7L111.3 0c-1.1-.2-2.2.2-2.8 1.1-.6.9-.7 2.1-.1 3l6.6 10.3L1.3 86.8c-1.3.8-1.6 2.5-.8 3.8.5.8 1.4 1.3 2.3 1.3.5 0 1-.1 1.5-.4L118 19.2l6.9 10.9c.5.8 1.4 1.3 2.3 1.3h.5c1.1-.2 2-1 2.2-2.1L134.5 8c.3-1.5-.6-2.9-2.1-3.3z"/><g><path class="st1" d="M103.5 146.9H81.3c-1.6 0-2.9-1.3-2.9-2.9V70.4c0-1.6 1.3-2.9 2.9-2.9h22.2c1.6 0 2.9 1.3 2.9 2.9v73.7c0 1.6-1.3 2.8-2.9 2.8zm-19.3-5.7h16.5V73.3H84.2v67.9zM66 146.9H43.8c-1.6 0-2.9-1.3-2.9-2.9V95c0-1.6 1.3-2.9 2.9-2.9H66c1.6 0 2.9 1.3 2.9 2.9v49.1c0 1.6-1.3 2.8-2.9 2.8zm-19.4-5.7h16.5V97.8H46.6v43.4zM28.4 146.9H6.2c-1.6 0-2.9-1.3-2.9-2.9v-24.6c0-1.6 1.3-2.9 2.9-2.9h22.2c1.6 0 2.9 1.3 2.9 2.9V144c0 1.7-1.3 2.9-2.9 2.9zm-19.3-5.7h16.5v-18.8H9.1v18.8zM141.1 146.9h-22.2c-1.6 0-2.9-1.3-2.9-2.9V45.9c0-1.6 1.3-2.9 2.9-2.9h22.2c1.6 0 2.9 1.3 2.9 2.9v98.2c0 1.6-1.3 2.8-2.9 2.8zm-19.3-5.7h16.5V48.7h-16.5v92.5zM5.9 101.4c-.9 0-1.9-.5-2.4-1.3-.9-1.3-.5-3.1.9-4L125.8 19c1.3-.9 3.1-.5 4 .9.9 1.3.5 3.1-.9 4l-121.5 77c-.5.3-1 .5-1.5.5z"/><path class="st1" d="M136.5 37.8c-1 0-1.9-.5-2.4-1.3L116.8 9.4c-.6-1-.6-2.2.1-3.2.7-.9 1.8-1.4 3-1.2l22.2 4.9c1.6.3 2.5 1.9 2.2 3.4l-4.9 22.2c-.2 1.1-1.2 2-2.3 2.2-.2.1-.4.1-.6.1zm-11.1-25.7l9.8 15.4 2.8-12.6-12.6-2.8z"/></g></svg>