<svg xmlns="http://www.w3.org/2000/svg" viewBox="0 0 155.1 133"><path d="M69.8 122.6c-2.4 0-4.2-1.6-5.7-3l-13.3-13.3C39.5 95 28.2 83.7 17.1 72.3 8.2 63.2 2.9 53.5.7 42.7-1.7 30.6 1.8 19.9 11 10.8 17.2 4.7 24.5 1.2 32.8.3 33.9.2 35 .1 36.1.1c11.2 0 22.2 6 31.7 17.4.7.8 1.3 1.7 2 2.6.6-.8 1.2-1.5 1.8-2.2C82.4 4.7 93.9-1.3 106.3.2c14 1.7 24.6 9.4 30.5 22.2 4 8.7 3.8 18.3-.8 29.4-3.3 8-8.5 15.4-16.4 23.4l-44.2 44.3c-1.4 1.5-3.2 3.1-5.6 3.1z" fill="#fff"/><path d="M83.5 133c-2.5 0-4.3-1.6-5.8-3.1l-13.6-13.7C52.5 104.7 41 93.1 29.5 81.4c-9.1-9.3-14.6-19.2-16.8-30.2-2.5-12.4 1.1-23.4 10.5-32.7C29.5 12.3 37 8.7 45.5 7.8c1.1-.1 2.3-.2 3.4-.2 11.5 0 22.7 6.2 32.5 17.9.7.9 1.4 1.7 2.1 2.6.6-.8 1.2-1.5 1.8-2.3C96.4 12.2 108.3 6 121 7.6c14.4 1.8 25.2 9.6 31.3 22.7 4.1 8.9 3.8 18.7-.8 30.1-3.3 8.2-8.7 15.8-16.8 24l-45.2 45.4c-1.7 1.6-3.5 3.2-6 3.2zM49 15.1c-.8 0-1.7 0-2.6.1-6.7.7-12.7 3.6-17.8 8.6-7.6 7.5-10.4 16-8.4 25.8 1.9 9.6 6.7 18.2 14.7 26.4 11.4 11.7 23 23.2 34.5 34.8L83 124.5l.4.4.5-.5L129.2 79c7.4-7.4 12.2-14.2 15.2-21.5 3.9-9.5 4.1-17.1.9-24.1-5-10.8-13.5-17-25.3-18.4-.9-.1-1.9-.2-2.8-.2-8.8 0-17.6 5.3-26.1 15.6-1 1.2-2 2.6-3 4l-1.6 2.2c-.7 1-1.8 1.5-3 1.5s-2.3-.6-3-1.5c-.6-.8-1.1-1.5-1.7-2.3-1-1.4-2-2.8-3.1-4.1-5.8-6.9-15.2-15.1-26.7-15.1z" fill="#d54324"/></svg>