<svg version="1.1" id="Layer_1" xmlns="http://www.w3.org/2000/svg" x="0" y="0" viewBox="0 0 148.5 166.6" xml:space="preserve"><style>.st1{fill:#d54324}</style><path d="M128.2 0H13.3c-2.2 0-4.1 1.8-4.1 4.1V26H2.1C.9 26 0 26.9 0 28s.9 2 2 2h7.2v19.9H2c-1.1 0-2 .9-2 2s.9 2 2 2h7.2v19.9H2c-1.1 0-2 .9-2 2s.9 2 2 2h7.2v19.9H2c-1.1 0-2 .9-2 2s.9 2 2 2h7.2v19.8H2c-1.1 0-2 .9-2 2s.9 2 2 2h7.2v21.9c0 2.3 1.8 4.1 4.1 4.1h114.9c2.2 0 4.1-1.8 4.1-4.1V4.1c0-2.3-1.8-4.1-4.1-4.1z" fill="#fff"/><path class="st1" d="M144.3 166.6H25.1c-2.3 0-4.2-1.9-4.2-4.2v-149c0-2.3 1.9-4.2 4.2-4.2h119.2c2.3 0 4.2 1.9 4.2 4.2v149c0 2.3-1.9 4.2-4.2 4.2zm-115-8.5H140V17.5H29.3v140.6z"/><path class="st1" d="M36.8 40.3H13.4c-1.2 0-2.1-1-2.1-2.1s.9-2.1 2.1-2.1h23.4c1.2 0 2.1 1 2.1 2.1s-.9 2.1-2.1 2.1zM36.8 65.1H13.4c-1.2 0-2.1-.9-2.1-2.1 0-1.2.9-2.1 2.1-2.1h23.4c1.2 0 2.1 1 2.1 2.1 0 1.2-.9 2.1-2.1 2.1zM36.8 89.9H13.4c-1.2 0-2.1-.9-2.1-2.1 0-1.2.9-2.1 2.1-2.1h23.4c1.2 0 2.1.9 2.1 2.1 0 1.2-.9 2.1-2.1 2.1zM36.8 114.8H13.4c-1.2 0-2.1-.9-2.1-2.1 0-1.2.9-2.1 2.1-2.1h23.4c1.2 0 2.1.9 2.1 2.1s-.9 2.1-2.1 2.1zM36.8 139.6H13.4c-1.2 0-2.1-.9-2.1-2.1s.9-2.1 2.1-2.1h23.4c1.2 0 2.1.9 2.1 2.1s-.9 2.1-2.1 2.1z"/><g><path class="st1" d="M82 55.7c-5.4 0-9.8-4.4-9.8-9.8S76.6 36 82 36s9.8 4.4 9.8 9.8-4.4 9.9-9.8 9.9zm0-17.1c-4 0-7.3 3.3-7.3 7.3s3.3 7.3 7.3 7.3 7.3-3.3 7.3-7.3c0-4.1-3.3-7.3-7.3-7.3zM82 83.8c-5.4 0-9.8-4.4-9.8-9.8s4.4-9.8 9.8-9.8 9.8 4.4 9.8 9.8-4.4 9.8-9.8 9.8zm0-17.1c-4 0-7.3 3.3-7.3 7.3s3.3 7.3 7.3 7.3 7.3-3.3 7.3-7.3-3.3-7.3-7.3-7.3zM82 111.9c-5.4 0-9.8-4.4-9.8-9.8s4.4-9.8 9.8-9.8 9.8 4.4 9.8 9.8-4.4 9.8-9.8 9.8zm0-17.1c-4 0-7.3 3.3-7.3 7.3s3.3 7.3 7.3 7.3 7.3-3.3 7.3-7.3-3.3-7.3-7.3-7.3zM82 139.6c-5.4 0-9.8-4.4-9.8-9.8s4.4-9.8 9.8-9.8 9.8 4.4 9.8 9.8-4.4 9.8-9.8 9.8zm0-17.1c-4 0-7.3 3.3-7.3 7.3s3.3 7.3 7.3 7.3 7.3-3.3 7.3-7.3-3.3-7.3-7.3-7.3z"/></g><g><path class="st1" d="M81.4 49.9c-.1 0-.1 0 0 0-.6 0-1-.2-1.3-.6l-8.3-9.6c-.6-.7-.6-1.8.2-2.5.7-.6 1.8-.5 2.4.2l7.2 8.2 19.7-18.8c.7-.7 1.8-.6 2.5.1s.6 1.8-.1 2.5l-21 20c-.5.3-.9.5-1.3.5z"/></g><g><path class="st1" d="M81.4 78.4c-.1 0-.1 0 0 0-.6 0-1-.2-1.3-.6l-8.3-9.6c-.6-.7-.6-1.8.2-2.5.7-.6 1.8-.6 2.4.2l7.2 8.2 19.7-18.8c.7-.7 1.8-.6 2.5.1s.6 1.8-.1 2.5l-21 20c-.5.4-.9.5-1.3.5z"/></g><g><path class="st1" d="M81.4 106.6c-.1 0-.1 0 0 0-.6 0-1-.2-1.3-.6l-8.3-9.6c-.6-.7-.6-1.8.2-2.5.7-.6 1.8-.6 2.4.2l7.2 8.2 19.7-18.8c.7-.7 1.8-.6 2.5.1s.6 1.8-.1 2.5l-21 20c-.5.3-.9.5-1.3.5z"/></g><g><path class="st1" d="M81.4 134.3c-.1 0-.1 0 0 0-.6 0-1-.2-1.3-.6l-8.3-9.6c-.6-.7-.6-1.8.2-2.5.7-.6 1.8-.6 2.4.2l7.2 8.2 19.7-18.8c.7-.7 1.8-.6 2.5.1s.6 1.8-.1 2.5l-21 20c-.5.3-.9.5-1.3.5z"/></g></svg>