<svg width="28" height="28" xmlns="http://www.w3.org/2000/svg"><path fill="none" d="M-1-1h582v402H-1z"/><g><path fill="#429bcb" d="M22.055 5.946a5.696 5.696 0 010 8.054l-1.448 1.448a.8.8 0 000 1.132l.48.48a.8.8 0 001.13 0l1.448-1.449A7.974 7.974 0 0012.39 4.335l-1.448 1.448a.8.8 0 000 1.132l.48.48a.8.8 0 001.13 0l1.449-1.449a5.695 5.695 0 018.054 0zM5.946 22.054a5.695 5.695 0 008.054 0l1.448-1.448a.8.8 0 011.131 0l.48.48a.8.8 0 010 1.13l-1.448 1.449A7.974 7.974 0 014.336 12.389l1.447-1.448a.8.8 0 011.131 0l.48.48a.8.8 0 010 1.13L5.946 14a5.695 5.695 0 000 8.054z"/><path fill="#429bcb" d="M17.86 9.804a.9.9 0 00-1.273 0l-6.782 6.781a.9.9 0 000 1.273l.338.338a.9.9 0 001.273 0l6.781-6.781a.9.9 0 000-1.273l-.338-.338z"/></g></svg>