<svg width="500" height="500" xmlns="http://www.w3.org/2000/svg"><path fill="none" d="M-1-1h582v402H-1z"/><g><rect fill="#fff" width="500" ry="250" rx="250" height="500"/><path fill="#27aae1" d="M128.763 90C107.35 90 90 107.39 90 128.842s17.35 38.842 38.763 38.842c21.414 0 38.763-17.389 38.763-38.842S150.176 90 128.763 90zM331.79 191.132v.026c-4.378-.016-8.626.16-14.184.447-12.189.631-40.656 13.838-51.079 34.921 0-9.153.106-17.56.106-30.105-12.486 0-28.825.079-62.948.079 0 38.308-.42 173.97-.42 213.5h66.078c0-23.45.316-82.353.316-119.342 0-12.42 7.508-41.105 38.316-41.105 27.974 0 35.815 23.577 35.815 41.105 0 38.522-.289 92.976-.289 119.342h66.474c0-25.772.236-95.779-.553-139.947-.958-53.629-33.533-76.51-62.763-78.316-6.015-.372-10.49-.59-14.869-.605zm-236.21 6.21v212.553h66.263V197.342H95.58z"/></g></svg>