<svg version="1.1" id="Layer_1" xmlns="http://www.w3.org/2000/svg" xmlns:xlink="http://www.w3.org/1999/xlink" x="0" y="0" viewBox="0 0 283.5 283.5" xml:space="preserve"><style>.st2{clip-path:url(#SVGID_2_);fill:#fff}</style><defs><path id="SVGID_1_" d="M0 0h283.5v283.5H0z"/></defs><clipPath id="SVGID_2_"><use xlink:href="#SVGID_1_" overflow="visible"/></clipPath><path class="st2" d="M141.7 202.6c-.9 0-1.8-.5-2.2-1.3l-23.1-46c-10.1-7.9-15.9-19.7-16-32.5 0-22.8 18.5-41.3 41.2-41.3 22.7 0 41.2 18.5 41.2 41.2 0 12.8-5.8 24.6-16 32.5l-23.1 46c-.2.8-1 1.4-2 1.4m0-116.3c-20 0-36.3 16.3-36.3 36.3 0 11.5 5.3 22 14.5 29 .3.2.5.5.7.9l21.1 42.2 21.1-42.2c.2-.3.4-.6.7-.9 9.2-6.9 14.5-17.5 14.5-28.9 0-20.1-16.2-36.4-36.3-36.4"/><path class="st2" d="M141.7 137.7c-8.4 0-15.3-6.8-15.3-15.3 0-8.4 6.8-15.3 15.3-15.3 8.4 0 15.3 6.8 15.3 15.3s-6.9 15.3-15.3 15.3m0-25.6c-5.7 0-10.4 4.7-10.4 10.4s4.7 10.4 10.4 10.4 10.4-4.7 10.4-10.4c0-5.8-4.6-10.4-10.4-10.4"/></svg>