<svg version="1.1" id="Layer_1" xmlns="http://www.w3.org/2000/svg" x="0" y="0" viewBox="0 0 119.4 157.2" xml:space="preserve"><style>.st1,.st2{fill:#d54324}.st2{stroke:#d54324;stroke-width:5;stroke-miterlimit:10}</style><path d="M48.8 147.3c-.8 0-1.5-.4-1.9-1.1l-41-72.7c-.1-.2-.2-.4-.2-.6C1.9 65.6 0 58 0 50.2 0 22.5 22.5 0 50.2 0c13.4 0 26 5.2 35.5 14.7s14.7 22.1 14.7 35.5c0 7.8-2 15.6-5.8 23-.1.2-.1.3-.2.4-1 1.9-39.4 65.4-43.8 72.6-.3.7-1 1.1-1.8 1.1z" fill="#fff"/><path class="st1" d="M65.7 156.2c-1.1 0-2.2-.6-2.7-1.6L22 81.8c-.1-.2-.2-.5-.3-.7-3.8-7.4-5.7-15.2-5.7-23C16 29.8 39 6.9 67.2 6.9c13.7 0 26.6 5.3 36.2 15 9.7 9.7 15 22.5 15 36.2 0 8-2 15.8-5.9 23.4-.1.2-.2.4-.3.5-.9 1.7-15.1 25.2-42 69.6l-1.8 3c-.5 1-1.6 1.6-2.7 1.6zm.1-9.4c15.8-26 40.1-66.3 40.9-67.9l.1-.1c3.5-6.7 5.3-13.7 5.3-20.8 0-12-4.7-23.3-13.2-31.8S79.1 13 67.1 13c-24.8 0-45 20.2-45 45 0 7.1 1.8 14.1 5.4 20.8.1.2.2.3.2.5l38.1 67.5z"/><path class="st1" d="M67.2 7.8c13.4 0 26 5.2 35.5 14.7s14.7 22.1 14.7 35.5c0 7.8-2 15.6-5.8 23-.1.2-.1.3-.2.4-1 1.9-39.4 65.4-43.8 72.6-.4.6-1.1 1-1.8 1-.8 0-1.5-.4-1.8-1.1L22.8 81.4c-.1-.2-.2-.4-.2-.6-3.8-7.3-5.7-14.9-5.7-22.7 0-27.7 22.6-50.3 50.3-50.3m-1.4 141c12.9-21.4 40.9-67.6 41.8-69.4 0 0 0-.1.1-.1 3.6-6.9 5.4-14 5.4-21.2 0-12.3-4.8-23.8-13.4-32.5S79.4 12.1 67.2 12.1c-25.3 0-46 20.6-46 46 0 7.2 1.8 14.4 5.5 21.2.1.2.1.3.2.5l38.9 69m1.4-143C38.4 5.8 15 29.2 15 58c0 8 2 15.9 5.8 23.4.1.3.2.6.4.8l41.1 72.7c.7 1.3 2.1 2.1 3.5 2.1h.1c1.4 0 2.8-.8 3.5-2l1.3-2.2c27-44.6 41.2-68.2 42.5-70.4.1-.2.2-.4.3-.7 4-7.7 6-15.7 6-23.8 0-14-5.4-27.1-15.3-36.9S81.1 5.8 67.2 5.8zM28.7 79l-.3-.6C25 71.8 23.2 65 23.2 58.1c0-24.2 19.7-44 44-44 11.7 0 22.8 4.6 31.1 12.9s12.9 19.3 12.9 31.1c0 6.9-1.8 13.7-5.2 20.3l-.1.1c-.8 1.5-23.7 39.4-40 66.3L28.7 79z"/><g><path class="st2" d="M67.2 81.2c-13.8 0-25-11.2-25-25 0-6.7 2.6-12.9 7.3-17.7.3-.3.7-.3 1 0s.3.7 0 1C46 44 43.6 49.9 43.6 56.2c0 13 10.6 23.6 23.6 23.6s23.6-10.6 23.6-23.6c0-12.8-10.2-23.2-22.9-23.6v7c0 .4-.3.7-.7.7-.4 0-.7-.3-.7-.7V32c0-.4.3-.7.7-.7 13.8 0 25 11.2 25 25-.1 13.7-11.3 24.9-25 24.9z"/><path class="st2" d="M67.2 56.9c-.2 0-.3-.1-.5-.2L55.9 45.9c-.3-.3-.3-.7 0-1s.7-.3 1 0l10.8 10.8c.3.3.3.7 0 1-.2.1-.4.2-.5.2z"/></g></svg>