<svg version="1.1" id="Layer_1" xmlns="http://www.w3.org/2000/svg" x="0" y="0" viewBox="0 0 144.6 160" xml:space="preserve"><style>.st1{fill:#d54324}</style><path d="M115.4 112c.3-.5.6-1.1.9-1.6.2-.4.4-.8.7-1.2.2-.3.3-.6.5-.9.3-.6.6-1.2.9-1.9 0-.1.1-.2.1-.3 3.5-7.6 5.4-15.9 5.4-24.8 0-2-.1-4.1-.3-6.1-.1-1-.2-2-.4-2.9v-.1c-.2-1-.3-1.9-.5-2.9v-.1c-.2-.9-.4-1.9-.7-2.8-1.2-4.6-2.9-9.1-5.3-13.5-10.1-18.6-29.8-31.2-52.4-31.2-.7 0-1.3.3-1.7.8-.6.4-1 1-1 1.8v54.5s-.2 1.2-.8 1.6l-48.2 26.1c-1 .6-1.4 1.8-.9 2.8 0 .1.1.1.1.1 0 .1.1.1.1.2 10.8 19.8 31.2 31.1 52.3 31.2.9 0 1.7 0 2.6-.1h.3c.5 0 1-.1 1.4-.1.5 0 1.1-.1 1.6-.1.4 0 .7-.1 1.1-.1.6-.1 1.3-.1 1.9-.2.3-.1.6-.1.9-.1.7-.1 1.4-.2 2.1-.4.3-.1.5-.1.8-.2.7-.1 1.4-.3 2.1-.5.2-.1.4-.1.7-.2.7-.2 1.5-.4 2.2-.6.2-.1.3-.1.5-.2.8-.2 1.6-.5 2.3-.8.1 0 .1-.1.2-.1 2.6-1 5.2-2.1 7.8-3.5 9.5-5.2 17.1-12.6 22.4-21.2.1-.1.2-.3.3-.4z" fill="#fff"/><path class="st1" d="M72.3 159.5C32.7 159.5.5 127.3.5 87.7c0-22.2 10.5-43.4 28-56.9l-6.3-6.3c-.5-.5-.8-1.2-.8-1.9s.3-1.4.8-1.9l11-10.8c.5-.5 1.2-.8 1.9-.8s1.4.3 1.9.8l10.5 10.5c2.2-.8 4.5-1.5 6.8-2.1V3.1c0-1.5 1.2-2.6 2.6-2.6h30.9c1.5 0 2.6 1.2 2.6 2.6v15.1c2.3.6 4.6 1.3 6.8 2.1l10.5-10.5c.5-.5 1.2-.8 1.9-.8s1.4.3 1.9.8l10.9 10.9c.5.5.8 1.2.8 1.9s-.3 1.4-.8 1.9l-6.3 6.3c17.6 13.5 28 34.8 28 56.9 0 39.6-32.2 71.8-71.8 71.8zM34.5 29.2c.5.5.8 1.3.8 2.1-.1.8-.5 1.5-1.1 1.9C16.4 45.7 5.8 66.1 5.8 87.7c0 36.7 29.8 66.5 66.5 66.5s66.5-29.8 66.5-66.5c0-21.6-10.6-42-28.3-54.4-.6-.5-1.1-1.2-1.1-1.9-.1-.8.2-1.5.8-2.1l6.6-6.6-7.2-7.2-9.8 9.8c-.5.5-1.2.8-1.9.8-.3 0-.7-.1-1-.2-3.1-1.3-6.4-2.3-9.7-3-1.2-.3-2.1-1.3-2.1-2.6V5.8H59.5v14.5c0 1.2-.8 2.3-2.1 2.6-3.3.8-6.6 1.8-9.7 3-.3.1-.6.2-1 .2-.7 0-1.4-.3-1.9-.8L35 15.5l-7.2 7.2 6.7 6.5z"/><path class="st1" d="M87.7 1c1.2 0 2.1 1 2.1 2.1v15.5c2.5.6 5 1.4 7.4 2.3L108 10.2c.4-.4 1-.6 1.5-.6.6 0 1.1.2 1.5.6l11 11c.4.4.6 1 .6 1.5 0 .6-.2 1.1-.6 1.5l-6.7 6.7c17.8 13.5 28.3 34.5 28.3 56.9 0 39.3-32 71.3-71.3 71.3C33 159 1 127 1 87.7c0-22.3 10.5-43.4 28.3-56.9l-6.7-6.7c-.4-.4-.6-1-.6-1.5 0-.6.2-1.1.6-1.5l10.9-10.9c.4-.4 1-.6 1.5-.6s1.1.2 1.5.6L47.3 21c2.4-.9 4.9-1.7 7.4-2.3V3.1c0-1.2 1-2.1 2.1-2.1h30.9M46.8 25.6c-.6 0-1.1-.2-1.5-.6L35 14.8l-7.9 7.9 6.9 6.9c.5.5.7 1.1.6 1.7 0 .6-.4 1.2-.9 1.6-17.8 12.5-28.4 33-28.4 54.8 0 36.9 30.1 67 67 67s67-30.1 67-67c0-21.8-10.7-42.3-28.5-54.8-.5-.4-.8-.9-.9-1.6s.2-1.2.6-1.7l6.9-6.9-7.9-7.9L99.3 25c-.4.4-1 .6-1.5.6-.3 0-.5 0-.8-.1-3.2-1.3-6.5-2.3-9.8-3-1-.2-1.7-1.1-1.7-2.1v-15H59v15c0 1-.7 1.9-1.7 2.1-3.3.8-6.6 1.8-9.8 3-.2 0-.5.1-.7.1M87.7 0H56.9c-1.7 0-3.1 1.4-3.1 3.1v14.7c-2.1.5-4.1 1.2-6.2 1.9L37.3 9.5c-.6-.6-1.4-.9-2.2-.9s-1.6.3-2.2.9l-11 11c-.6.5-.9 1.3-.9 2.2s.3 1.6.9 2.2l5.9 5.9C10.4 44.4 0 65.6 0 87.7 0 127.6 32.4 160 72.3 160s72.3-32.4 72.3-72.3c0-22.1-10.4-43.3-27.8-57l5.9-5.9c.6-.6.9-1.4.9-2.2s-.3-1.6-.9-2.2L111.8 9.5c-.6-.6-1.4-.9-2.2-.9-.8 0-1.6.3-2.2.9L97.1 19.8c-2-.7-4.1-1.4-6.2-1.9V3.1c0-1.7-1.5-3.1-3.2-3.1zM60 6.3h24.6v14c0 1.5 1 2.7 2.4 3.1 3.3.8 6.5 1.8 9.6 3 .4.1.8.2 1.2.2.8 0 1.6-.3 2.2-.9l9.5-9.5 6.5 6.5-6.2 6.2c-.7.7-1 1.6-.9 2.5.1.9.6 1.8 1.3 2.3 17.6 12.4 28.1 32.6 28.1 54 0 36.4-29.6 66-66 66s-66-29.6-66-66c0-21.5 10.5-41.7 28.1-54 .8-.5 1.2-1.4 1.3-2.3.1-.9-.2-1.8-.9-2.5l-6.2-6.2 6.5-6.5 9.5 9.5c.6.6 1.4.9 2.2.9.4 0 .8-.1 1.2-.2 3.1-1.2 6.3-2.2 9.7-3 1.5-.3 2.5-1.6 2.5-3.1v-14H60z"/><path class="st1" d="M21.4 62.4c-2.7 0-4.8-2.2-4.8-4.8s2.2-4.8 4.8-4.8 4.8 2.2 4.8 4.8c0 2.6-2.2 4.8-4.8 4.8z"/><path class="st1" d="M21.4 53.2c2.4 0 4.3 1.9 4.3 4.3s-1.9 4.3-4.3 4.3-4.4-1.9-4.4-4.2 2-4.4 4.4-4.4m0-1c-2.9 0-5.3 2.4-5.3 5.3s2.4 5.3 5.3 5.3 5.3-2.4 5.3-5.3-2.4-5.3-5.3-5.3z"/><g><path class="st1" d="M41.7 42.6c-2.7 0-4.8-2.2-4.8-4.8s2.2-4.8 4.8-4.8 4.8 2.2 4.8 4.8c.1 2.6-2.1 4.8-4.8 4.8z"/><path class="st1" d="M41.7 33.5c2.4 0 4.3 1.9 4.3 4.3s-1.9 4.3-4.3 4.3-4.3-1.9-4.3-4.3 2-4.3 4.3-4.3m0-1c-2.9 0-5.3 2.4-5.3 5.3s2.4 5.3 5.3 5.3 5.3-2.4 5.3-5.3-2.3-5.3-5.3-5.3z"/></g><path d="M120.7 115.7l.9-1.5c.2-.4.4-.7.6-1.1.2-.3.3-.6.4-.9l.9-1.8c0-.1.1-.2.1-.3 3.3-7.1 5.1-15.1 5.1-23.4v0c0-1.9-.1-3.8-.3-5.7 0 0 0 0 0 0-.1-.9-.2-1.9-.4-2.8v-.1c-.1-.9-.3-1.8-.5-2.7v-.1l-.6-2.7h0c-1.1-4.3-2.8-8.6-5-12.8h0c-9.5-17.5-28.1-29.4-49.4-29.4-.6 0-1.2.3-1.6.8-.6.4-.9 1-.9 1.7v51.4s-.2 1.2-.8 1.5l-45.4 24.6c-1 .5-1.3 1.7-.8 2.7 0 .1.1.1.1.1 0 .1 0 .1.1.2 10.1 18.7 29.5 29.4 49.4 29.4v0c.8 0 1.6 0 2.5-.1h.3c.5 0 .9-.1 1.4-.1.5 0 1-.1 1.5-.1.3 0 .7-.1 1-.1.6-.1 1.2-.1 1.8-.2.3 0 .6-.1.8-.1.6-.1 1.3-.2 1.9-.4.2-.1.5-.1.7-.2.7-.1 1.3-.3 2-.5.2-.1.4-.1.6-.2l2.1-.6c.2-.1.3-.1.4-.1.7-.2 1.5-.5 2.2-.8.1 0 .1 0 .2-.1 2.5-.9 4.9-2 7.3-3.3 9-4.9 16.1-11.9 21.1-20 .1.1.2-.1.3-.2zM27.5 113l45.4-24.6c.5-.3.8-.7 1-1.3.1-.2.2-.5.2-.8V34.5c28.1.8 50.8 23.9 50.8 52.2 0 .7 0 1.3-.1 2-.3 6.8-1.9 13.6-4.7 19.7-.1.1-.1.2-.1.3-.2.5-.5 1.1-.8 1.6-.2.3-.3.6-.4.9-.2.3-.4.7-.6 1-.3.5-.5 1-.8 1.4-.1.1-.2.2-.2.4-6.1 9.9-15.4 17.6-26.5 21.7h-.1c-.7.2-1.4.5-2.1.7-.1 0-.2.1-.4.1-.7.2-1.3.4-2 .6-.2.1-.3.1-.5.1-.6.2-1.3.3-1.9.4-.2 0-.4.1-.6.1-.6.1-1.2.2-1.9.3-.2 0-.5.1-.7.1-.6.1-1.2.2-1.8.2-.3 0-.6.1-.8.1-.5.1-1 .1-1.5.1-.4 0-.7.1-1.1.1h-.6c-18.8 1-37.3-8.4-47.2-25.6z" fill="#d54324" stroke="#d54324" stroke-width="2" stroke-miterlimit="10"/></svg>