<svg width="512" height="512" xmlns="http://www.w3.org/2000/svg" clip-rule="evenodd"><path fill="none" d="M-1-1h582v402H-1z"/><g><path fill="#439bcb" d="M496.002 131.883c-5.888-22.03-23.234-39.377-45.264-45.264-39.932-10.7-200.037-10.7-200.037-10.7s-160.105 0-200.038 10.7C28.638 92.506 11.287 109.853 5.4 131.883-5.297 171.811-5.297 255.12-5.297 255.12s0 83.308 10.696 123.232c5.888 22.03 23.24 39.381 45.264 45.268 39.933 10.697 200.038 10.697 200.038 10.697s160.105 0 200.037-10.697c22.03-5.887 39.376-23.238 45.264-45.268 10.701-39.924 10.701-123.232 10.701-123.232s0-83.308-10.7-123.236z"/><path fill="#fff" d="M204.796 332.803l133.018-76.801-133.018-76.801v153.602z"/></g></svg>